<?xml version="1.0" encoding="UTF-8"?><svg xmlns="http://www.w3.org/2000/svg" viewBox="0 0 94.47 154"><defs><style>.d{fill:#76b224;}</style></defs><g id="a"/><g id="b"><g id="c"><g><path class="d" d="M58.51,153.98h.8s0,.02,0,.01c.06,0,.12,0,.18-.01h-.98Z"/><path class="d" d="M91.87,53.56l-2.88,3.51c-1.24,1.51-1.92,3.4-1.92,5.35v8.44c0,6.31-4.03,11.87-10.04,13.82-3.84,1.25-6.69,4.33-7.66,8.24l-2.7,10.99c-.61,2.44-2.69,4.23-5.21,4.44h-.11c-.71,.07-1.41,.35-1.91,.86-.77,.79-1.02,1.89-.7,2.91,.87,2.78-.19,5.78-2.8,7.08l-.47,.24c-3.13,1.56-5.11,4.71-5.17,8.21l-.12,7.82c-.08,4.72,1.99,9.23,5.64,12.24l4.34,3.59c.38,.27,.63,.71,.63,1.21,0,.76-.56,1.38-1.3,1.47h-.98l-8.63-.16c-6.96-.13-13.11-4.65-15.31-11.26l-1.46-4.39c-.03-.09-.05-.18-.06-.28l-7.37-56.16c-.9-6.9-4.86-12.89-10.85-16.43-4.3-2.54-7.69-6.49-9.56-11.12l-3.97-9.84C-.98,38.72-.23,32.41,3.3,27.46l5.83-8.16c.85-1.18,.9-2.75,.14-3.99-1.7-2.78-1.08-6.45,1.43-8.51l4.19-3.46c2.62-2.16,5.92-3.34,9.31-3.34,1.07,0,2.15,.12,3.2,.36l9.75,2.18c3.84,.87,7.23,3.28,9.28,6.64l2.05,3.35c.99,1.61,2.8,2.58,4.71,2.49,3.13-.14,6.06,1.51,7.56,4.25l3.13,5.71c.57,1.05,1.51,1.88,2.62,2.34l20.84,8.46c3.39,1.38,5.85,4.21,6.76,7.75,.9,3.55,.08,7.21-2.24,10.04Z"/></g></g></g></svg>