<?xml version="1.0" encoding="UTF-8"?><svg xmlns="http://www.w3.org/2000/svg" xmlns:xlink="http://www.w3.org/1999/xlink" viewBox="0 0 761.5 451.04"><defs><style>.h,.i,.j,.k,.l,.m,.n,.o,.p,.q,.r,.s,.t{fill:none;}.h,.i,.j,.k,.l,.m,.n,.u,.v,.p,.q,.r,.t,.w{stroke-miterlimit:10;}.h,.i,.k,.x,.m,.o,.v,.q,.r{stroke-linecap:round;}.h,.i,.k,.o,.r{stroke:#be4d22;}.h,.o{stroke-width:7.49px;}.i,.m{stroke-width:4.97px;}.y{fill:#bcebe9;}.a`{opacity:.69;}.aa{fill:#fff;}.j{stroke-width:3.22px;}.j,.l,.t{stroke:#292b50;}.k{stroke-width:7.48px;}.ab{fill:#292b50;}.l,.q,.r{stroke-width:2.15px;}.ac{fill:#d7f5ef;}.x{stroke:#ffb09e;stroke-width:1.87px;}.x,.o{stroke-linejoin:round;}.x,.ad{fill:#ffb09e;}.m{stroke:#222343;}.n{stroke:#fcf9f5;stroke-width:.92px;}.ae,.u,.v{fill:#003b3a;}.af{fill:#c56274;}.u,.v{stroke:#f7b767;stroke-width:1.42px;}.ag{fill:#fffaed;}.ah{fill:#f7b767;}.p{stroke-width:6.62px;}.p,.q{stroke:#fff;}.ai{fill:#fcf9f5;}.aj{fill:#d47082;}.ak{fill:#e26191;}.al{clip-path:url(#e);}.am{clip-path:url(#d);}.an{fill:#5c9306;}.ao{clip-path:url(#f);}.t{stroke-width:8.2px;}.w{fill:#ff5e6e;opacity:.37;stroke:#ff5e6e;stroke-width:.4px;}.ap{opacity:.17;}.aq{fill:#be4d22;}.ar{fill:#76b225;}.as{clip-path:url(#g);}</style><clipPath id="d"><rect class="s" width="627.2" height="443.73"/></clipPath><clipPath id="e"><path class="s" d="M479.41,101.43c-16.35,3.09-27.14-7.55-48.75-15.96,0,0-11.21-5.02-19.02,6.62-7.81,11.64,8.66,22.25,8.66,22.25,16.01,10.91,29.23,27,46.58,23.03l12.53-35.94Z"/></clipPath><clipPath id="f"><path class="s" d="M447.72,90.52c.97,.87,15.25,27.37,13.33,38.81-1.29,7.67,3.61,21.93-1.27,36.88,0,0-25.06-.95-61.51-8.43-1.16-11.97-1.06-47.96,14.83-66.54,0,0,9.77-1.33,13.77-1.17,0,0,17.79,14.39,20.84,.44Z"/></clipPath><clipPath id="g"><path class="s" d="M469.26,141.76c-14.17-10.01-20.6-23.11-29.49-44.74,0,0-4.09-11.67-18.87-9.6-14.78,2.07-11.31,21.39-11.31,21.39,2.9,19.18,6.31,30.27,21.89,40.42l37.78-7.46Z"/></clipPath></defs><g id="a"/><g id="b"><g id="c"><g><g class="a`"><g class="am"><circle class="y" cx="312.74" cy="335.53" r="300.48" transform="translate(-145.65 319.42) rotate(-45)"/><path class="ac" d="M225.16,48.05c17.71,31.35,35.06,70.25,45.77,104.63,2.02,6.48,3.66,14.3-.76,19.44-2.98,3.47-7.86,4.55-12.41,5.04-29.07,3.15-57.46-9.22-86.57-12.02-14.1-1.36-31.41,1.55-36.71,14.69-5.95,14.76,7.83,30.93,5.29,46.63-2.61,16.14-21.23,24.66-37.58,24.96-16.34,.3-32.62-4.7-48.87-2.86-16.24,1.84-29.65,15.31-34.54,29.56,0,0,17.91-159.29,192.82-225.68l13.55-4.38Z"/><path class="ac" d="M133.92,577.88c3.57,2.88,7.6-7.34,6.47-11.78-1.13-4.44-4.4-7.97-6.93-11.79-13.79-20.75-5.83-48.17-1.2-72.65,3.84-20.32,4.99-41.15,3.42-61.78-1.64-21.57-7.8-45.24-26.1-56.78-12.54-7.9-28.2-8.4-43.02-8.66-17.59-.31-35.19-.62-52.78-.93,0,0-9.61,119.47,120.15,224.37Z"/><path class="ac" d="M612.32,359.92c-45.55,15.27-100.12,7.8-139.17-20.19-6.89-4.94-13.93-10.68-22.38-11.36-8.45-.68-17.99,6.96-15.41,15.04,1.82,5.7,8.77,9.3,8.84,15.28,.08,6.81-8.28,9.88-13.08,14.72-3.44,3.47-5.17,8.26-6.37,13-9.07,35.84,7,73.06,6.78,110.03-.13,22.33-9.68,48.07-31.25,53.86-20.89,5.61-41.18-10.24-55.55-26.41-22.77-25.63-41.27-55.05-54.49-86.68-8.21-19.66-13.37-45.02,1.7-60.08,7.1-7.1,17.25-10.12,25.59-15.73,9.39-6.32,16.52-16.38,18-27.6,1.48-11.22-3.25-23.38-12.71-29.6-18.63-12.25-42.95,1.75-65.25,2.01-1.46,.02-2.97-.04-4.28-.67-5.08-2.45-3.05-10.27,.55-14.61,10.41-12.59,26.66-18.37,41.65-24.87,14.99-6.51,30.6-15.53,36.36-30.82,2.35-6.23,2.94-13.29,6.93-18.62,9.3-12.43,28.46-7.41,43.93-8.68,18.29-1.51,35.07-14.75,40.78-32.19,3.45-10.53,3.09-21.93,5.63-32.72,5.97-25.33,29.09-44.7,49.82-57.86,0,0,132.94,70.04,135.1,250.9l-1.71,23.87Z"/></g></g><g><path class="ar" d="M563.85,408.91s-.02,0-.03,0c-.14,.33-.27,.67-.41,1.01,.36,.71-.09,1.52-.69,1.76-.64,1.65-1.26,3.31-1.84,4.99,7.03-.13,14.05-.08,21.07,.15,1-3.57,1.77-7.17,2.27-10.76-6.89,.25-13.67,1.19-20.37,2.85Z"/><path class="ar" d="M578.15,382.89c-5.17,7.35-9.57,15.16-13.17,23.33,6.43-1.47,12.94-2.32,19.53-2.53,.47-4.39,.56-8.89-.83-13.07-1.01-3.05-2.95-5.9-5.54-7.73Z"/><path class="ar" d="M560.72,410.25c-3.56-4.48-6.84-9.16-9.81-14.06-2.91,4.41-5.21,9.27-6.97,14.26-3.31,9.34-7.19,20.18-8.78,29.96h17.48c1.54-10.37,4.27-20.48,8.09-30.16Z"/><path class="ar" d="M552.65,394.51c2.76,4.6,5.79,9,9.08,13.23,3.82-9.14,8.62-17.86,14.34-26.01-.61-.26-1.24-.48-1.9-.63-5.03-1.14-10.18,1.49-14.15,4.79-2.92,2.42-5.47,5.22-7.7,8.27,.12,.09,.23,.2,.32,.36Z"/><path class="ar" d="M560.09,419.04c-2.26,6.95-3.96,14.09-5.08,21.37h17.17c3.61-6.61,6.8-13.84,9.08-21.25-7.05-.22-14.11-.27-21.17-.12Z"/></g><g><path class="an" d="M534.08,391.83c-.06,.13-.14,.23-.23,.32,4.46,6.23,8.88,12.49,13.24,18.79,.18-.13,.4-.22,.68-.23,6.62-.18,13.22-.63,19.8-1.32-1.72-3.16-3.46-6.31-5.21-9.45-.47-.84-.99-1.72-1.86-2.14-.99-.47-2.15-.21-3.19,.14-3.44,1.14-6.75,3.11-10.38,3.02-3.63-.09-7.46-3.67-5.99-6.99,.62-1.39,1.97-2.29,3.25-3.12,2.69-1.73,5.38-3.46,8.06-5.19,1.23-.79,2.59-1.8,2.66-3.26,.05-1-.55-1.91-1.12-2.73-2.45-3.54-4.91-7.08-7.42-10.57-4.51,7.35-8.62,14.92-12.3,22.72Z"/><path class="an" d="M568.78,411.62s-.03,0-.04,0c-6.72,.74-13.44,1.2-20.2,1.41,4.76,6.89,9.47,13.82,14.11,20.8,.85,1.27-1.2,2.45-2.04,1.19-21.44-32.24-44.15-63.63-68.08-94.08-1.4,2.02-2.19,4.44-2.78,6.84-3.13,12.75-1.64,26.24,1.77,38.91,5.4,20.07,15.65,38.82,29.62,54.21l62.95,.23c-4.92-9.94-10.03-19.78-15.3-29.53Z"/><path class="an" d="M532.33,390.02c3.75-7.89,7.94-15.54,12.54-22.97-3.69-5.04-7.54-9.95-11.74-14.58-6.58-7.25-14.42-14-23.96-16.21-5.19-1.2-11.25-.72-15.08,2.86,13.12,16.69,25.86,33.66,38.24,50.89Z"/></g><g><path class="ar" d="M672.16,413.95c-3.2,5-6.87,9.64-11.01,13.91-.01,.02-.03,.02-.05,.04,2.47,5.73,4.81,11.51,7,17.35h13.2c-1.66-10.21-5.66-21.49-9.14-31.3Z"/><path class="ar" d="M655.52,421.12c-.65-.09-1.21-.63-.92-1.41l.12-.32c-5.45-11.77-11.47-23.26-18.09-34.44-.78-1.31,1.27-2.5,2.04-1.19,6.26,10.57,11.99,21.43,17.21,32.53,2.14-5.73,4.27-11.47,6.41-17.2,.53-1.42,2.81-.8,2.28,.63-2.43,6.53-4.87,13.05-7.3,19.58,.95,2.08,1.89,4.16,2.81,6.25,4.19-4.41,7.88-9.2,11.05-14.4-3.53-9.13-8.78-17.73-16.31-23.96-4.23-3.51-9.71-6.31-15.07-5.09-4.87,1.1-8.55,5.4-10.12,10.13-1.58,4.74-1.37,9.88-.78,14.83,1.55,13.15,6.68,26.56,13.04,38.18h23.69c-3.08-8.16-6.43-16.2-10.06-24.12Z"/></g><g><path class="an" d="M616.53,416.98c.11-4.11,.22-8.21,.34-12.32,0-.34,.14-.6,.33-.79-2.28-1.29-4.83-2.02-7.34-1.46-2.58,.58-4.66,2.49-5.96,4.82,4.86,1.75,9.03,5.55,12.63,9.75Z"/><path class="an" d="M618.83,419.34c0,.14-.03,.26-.07,.37,1.69,2.16,3.24,4.33,4.67,6.32,4.28,5.93,7.77,12.34,9.92,19.22h4.68c-1.15-7.06-3.95-14.89-6.34-21.64-2.39-6.75-6.11-13.18-11.62-17.74-.28-.23-.56-.45-.86-.67-.13,4.71-.26,9.43-.39,14.14Z"/><path class="an" d="M605.09,430.61c6.16,.15,12.32,.06,18.47-.23-.46-.71-.93-1.41-1.42-2.1-4.62-6.6-11.09-15.97-19.2-18.87-1.02,3.18-.88,6.61-.49,9.93,.44,3.76,1.32,7.55,2.51,11.28,.04,0,.08-.01,.12,0Z"/><path class="an" d="M625.01,432.68c-6.42,.34-12.83,.44-19.25,.3,1.52,4.27,3.43,8.41,5.53,12.26h19.6c-1.45-4.39-3.47-8.58-5.88-12.56Z"/></g><g><path class="an" d="M733.59,366.8c4.02-10.93,7.64-22.02,10.85-33.23-2.74-.4-5.64-.2-8.32,.42-5.94,1.37-11.25,4.4-16.04,8.22,4.3,8.31,8.81,16.51,13.51,24.6Z"/><path class="an" d="M727.4,388.87c6.38-.23,12.78-.41,19.14,.19,2.56,.24,5.13,.59,7.65,1.13,.24-.84,.49-1.67,.72-2.51,3.63-13.49,5.21-27.86,1.89-41.43-.75-3.04-1.79-6.12-3.87-8.46-1.65-1.86-3.8-3.05-6.16-3.73-5.32,18.66-11.79,36.96-19.36,54.81Z"/><path class="an" d="M696.72,444.27c12.09-20.36,22.61-41.59,31.48-63.5h0c-5.6-10.01-11.45-19.86-17.56-29.57l-.03,.03c-8.15,8.98-15.09,18.99-22,28.95-.61,.88-1.24,1.84-1.19,2.91,.07,1.55,1.53,2.63,2.83,3.47,2.86,1.84,5.72,3.68,8.58,5.52,1.36,.88,2.8,1.83,3.46,3.32,1.57,3.53-2.51,7.34-6.37,7.44-3.86,.1-7.38-2-11.05-3.22-1.1-.37-2.35-.65-3.4-.15-.92,.44-1.48,1.38-1.98,2.28-8.08,14.43-15.8,29.06-23.13,43.88l40.39-.15c-.23-.33-.31-.76-.04-1.21Z"/><path class="an" d="M747.26,391.5c-2.18-.23-4.37-.36-6.56-.42-4.78-.15-9.56,.02-14.34,.19-8.02,18.62-17.23,36.73-27.6,54.19h0l24.62-.08c13.8-15.21,24.18-33.5,30.2-53.13-2.48-.4-6.1-.73-6.32-.76Z"/><path class="an" d="M729.32,377.96c1.09-2.75,2.16-5.51,3.2-8.29-4.99-8.52-9.75-17.17-14.3-25.94-2.07,1.78-4.04,3.69-5.91,5.67,5.91,9.37,11.58,18.89,17.02,28.55Z"/></g><g><path class="ar" d="M738.96,431.99c-.15,0-.28-.02-.4-.05-1.33,4.23-2.53,8.5-3.55,12.83-.05,.19-.13,.35-.23,.48h11.87c2.37-4.34,4.49-9.05,6.09-13.89-4.59,.21-9.19,.42-13.78,.63Z"/><path class="ar" d="M750.17,403.53c-2.77,5.42-5.25,10.96-7.45,16.6,4.24-.78,8.51-1.2,12.82-1.27,.35-3.22,.44-6.52-.58-9.59-.82-2.46-2.47-4.74-4.69-6.01-.02,.09-.06,.17-.1,.26Z"/><path class="ar" d="M742.42,422.57c-.23,.05-.44,.02-.63-.04-.88,2.34-1.71,4.7-2.5,7.07,4.73-.22,9.46-.44,14.19-.65,.75-2.56,1.34-5.14,1.74-7.71-4.31,.08-8.56,.5-12.8,1.33Z"/><path class="ar" d="M732.72,444.14c3.44-14.5,8.59-28.47,15.37-41.73h0c-3.64-.82-7.35,1.08-10.22,3.46-5.51,4.57-9.23,11-11.62,17.74-2.39,6.75-5.19,14.57-6.34,21.64h13.12c-.27-.26-.42-.64-.31-1.1Z"/></g><path class="ar" d="M349.85,446.52c-6.92-19.75-17.28-38.18-30.48-54.41-6.6-8.12-13.91-15.66-21.82-22.5-8.24-7.12-17.15-14.03-27.2-18.38-5.03-2.18-10.35-3.7-15.86-3.96s-10.68,.98-15.76,2.86-9.94,4.22-15.19,5.46-10.48,.8-15.38-1.59-9.32-6.05-13.73-9.37-9.18-6.79-13.91-10c-9.38-6.37-19.21-12.14-29.68-16.54-20.1-8.46-43.62-11.7-64.43-3.71-2.51,.96-4.96,2.08-7.34,3.34-1.71,.91-.19,3.5,1.51,2.59,19.33-10.27,42.7-9.04,62.84-1.9,10.59,3.76,20.56,9.11,30.02,15.15,4.81,3.07,9.5,6.34,14.12,9.7,4.39,3.2,8.63,6.64,13.1,9.74,4.38,3.05,9.18,5.59,14.55,6.2,5.03,.57,10.05-.73,14.75-2.44,5.02-1.83,9.87-4.15,15.06-5.49s10.76-1.29,16.06-.02c10.73,2.56,20.16,9.05,28.68,15.81,8.03,6.37,15.49,13.44,22.3,21.1,13.63,15.32,24.65,33.04,32.25,52.09,.94,2.35,1.82,4.71,2.65,7.1,.63,1.81,3.53,1.03,2.89-.8h0Z"/><g><path class="an" d="M216.12,371.79c-23.54,20.67-43.32,45.15-58.57,72.51-.4,.71-1.09,.85-1.68,.65,.39,.85,.77,1.69,1.15,2.54l191.73,2.49c-5.24-7.25-11.64-14.93-18.7-22.64-.05,.26-.21,.53-.5,.75-12.53,9.93-29.16,5.73-40.1-4.47-10.16-9.48-19.44-26.14-10.99-39.47,1.03-1.63,3.63-.12,2.59,1.51-7.42,11.7,.81,26.22,9.41,34.77,9.64,9.59,25.23,14.82,36.95,5.53,.33-.26,.69-.36,1.04-.34-18.71-20.15-41.82-40.34-61.03-53.66-4.9-3.4-10.21-6.75-16.17-7.1-7.86-.45-14.98,4.38-22.66,6.12-4.12,.93-8.17,.97-12.15,.34-.08,.15-.19,.31-.35,.45Zm35.16-2.08c.54-1.85,3.43-1.06,2.89,.8-3.52,12.18-5.1,24.79-4.46,37.47,.59,11.66,2.05,27.34,10.52,36.22,1.33,1.4-.79,3.52-2.12,2.12-8.43-8.84-10.19-23.04-11.15-34.7-1.17-14.13,.39-28.3,4.32-41.91Z"/><path class="an" d="M129.6,396.37c9.39,14.95,17.85,30.49,25.32,46.53,.02-.04,.03-.07,.05-.1,15.13-27.16,34.73-51.55,57.98-72.17-12.44-3.15-24.15-12.23-35-19.99-2.53-1.81-5.1-3.55-7.7-5.25-16.22,14.72-29.91,31.87-40.64,50.99Z"/><path class="an" d="M138,416.41c-.27,.1-.58,.1-.94-.04-37.03-15.03-77.02-21.31-116.87-18.33-.64,.05-1.06-.26-1.28-.68,.21,16.39,3.81,32.89,9.14,48.46l125.69,1.63c-4.82-10.57-10.08-20.93-15.74-31.04Z"/><path class="an" d="M120.35,382.26c.6,.37,1.21,.73,1.8,1.11,.85,.54,.84,1.5,.41,2.15,1.77,2.64,3.51,5.3,5.23,7.99,10.62-18.6,24.04-35.38,39.85-49.81-12.62-8.06-26-14.92-39.93-20.43-17.12-6.77-35.89-11.55-53.88-7.61-2.61,.57-5.15,1.33-7.63,2.25,20.15,19.62,38.29,41.2,54.15,64.36Z"/><path class="an" d="M20.19,395.05c39.39-2.95,79.02,3.12,115.72,17.68-5.53-9.66-11.44-19.09-17.72-28.28-25.41-15.77-52.07-29.43-79.74-40.79-1.76-.72-.99-3.63,.8-2.89,25.84,10.61,50.8,23.17,74.71,37.59-15.04-21.22-32.04-41.06-50.79-59.21-20.1,8.76-35.07,28.5-40.87,49.98-2.37,8.78-3.41,17.79-3.4,26.85,.21-.48,.64-.86,1.29-.91Z"/></g><path class="an" d="M145.18,292.64s-1.83-25.63-19.22-22.88c0,0-5.49,21.05,19.22,22.88Z"/><path class="an" d="M215.34,337.17s13.87-12.35,4.63-21.1c0,0-14.48,6.14-4.63,21.1Z"/><path class="ag" d="M192.17,348.64s-9.9-10.78-16.68-3.39c0,0,5.01,11.33,16.68,3.39Z"/><path class="an" d="M720.88,303.44s-4.73-13.4,10.66-17.35c0,0,5.82,16.99-10.66,17.35Z"/><path class="an" d="M735.37,314.19s5.52-18.99,26.13-10.96c0,0-7.21,23.93-26.13,10.96Z"/><path class="ag" d="M217.53,267.01s7.06-24.28,33.41-14.01c0,0-9.22,30.59-33.41,14.01Z"/><path class="ab" d="M362.91,445.4c0,2.83-20.35,5.13-45.46,5.13s-45.46-2.3-45.46-5.13,20.35-5.13,45.46-5.13,45.46,2.3,45.46,5.13Z"/><path class="ab" d="M663.54,445.4c0,2.83-20.35,5.13-45.46,5.13s-45.46-2.3-45.46-5.13,20.35-5.13,45.46-5.13,45.46,2.3,45.46,5.13Z"/><path class="ad" d="M481.38,311.56c-3.43,9.51-14.41,31.66-14.41,31.66l38.74,18.35c-3.54-4.91-14.69-24.48-14.69-24.48l6.1-18.36s-15.84-7.02-15.74-7.17Z"/><path class="ak" d="M491.11,337.17l15.35,24.23c.7,1.08-.36,2.46-1.57,2.03-9.89-3.53-36.47-13.23-43.45-15.81-.85-.31-1.14-1.36-.58-2.08,3.07-4.01,10.59-15.67,13.13-18.9,.4-.51,2.75,12.38,6.06,12.29,2.85-.08,10.84-1.81,11.06-1.76Z"/><path class="n" d="M492.06,338.5l-5.99,2.78c-1.42,.66-2.04,2.35-1.38,3.77h0c.66,1.43,2.35,2.05,3.77,1.39l6.72-3.12"/><path class="aj" d="M481.12,311.43l-7.14,15.21s2.08,9,2.98,9.39c.89,.4,10.9-21.36,10.9-21.36l-6.73-3.24Z"/><path class="an" d="M392.17,213.97c-8.2-20.81,11.67-40.34,16.39-48.55,4.21-.03,12.46,9.65,19.92,10.44,33.08,3.49,74.26,27.85,85.37,35.59,17.65,12.29-9.02,98.82-14.82,115.85-1.76,1.38-26.32-10.25-25.06-9.61,7.14-37.74,22.36-55.64,4.89-69.96-16.33-13.38-79.15-14.61-86.69-33.75Z"/><path class="i" d="M574.69,188.67l-4.96-10.63c-1.67-3.58-5.31-5.84-9.27-5.74l-25.73,.66"/><line class="m" x1="560.47" y1="172.31" x2="534.74" y2="172.97"/><g><g><line class="l" x1="674.39" y1="294.36" x2="655.41" y2="365.71"/><line class="l" x1="719.61" y1="328.49" x2="655.73" y2="365.52"/><line class="l" x1="723.71" y1="385.39" x2="652.36" y2="366.4"/><line class="l" x1="689.58" y1="430.61" x2="652.54" y2="366.73"/></g><g><line class="l" x1="616.28" y1="303.22" x2="653.31" y2="367.1"/><line class="l" x1="581.6" y1="348.02" x2="652.95" y2="367"/><line class="l" x1="592.56" y1="403.99" x2="656.44" y2="366.96"/><line class="l" x1="637.36" y1="438.68" x2="656.34" y2="367.33"/></g></g><circle class="t" cx="654.87" cy="365.19" r="76.38" transform="translate(-66.43 570.02) rotate(-45)"/><circle class="ab" cx="654.87" cy="365.19" r="17.19"/><circle class="aq" cx="654.87" cy="365.19" r="11"/><circle class="ab" cx="654.87" cy="365.19" r="7.69"/><circle class="p" cx="654.87" cy="365.19" r="82.54" transform="translate(-66.43 570.02) rotate(-45)"/><path class="h" d="M654.87,271.84c-51.56,0-93.35,41.79-93.35,93.35"/><g><g><line class="l" x1="380.69" y1="294.36" x2="361.71" y2="365.71"/><line class="l" x1="425.91" y1="328.49" x2="362.03" y2="365.52"/><line class="l" x1="430.01" y1="385.39" x2="358.66" y2="366.4"/><line class="l" x1="395.88" y1="430.61" x2="358.85" y2="366.73"/></g><g><line class="l" x1="322.59" y1="303.22" x2="359.62" y2="367.1"/><line class="l" x1="287.9" y1="348.02" x2="359.26" y2="367"/><line class="l" x1="298.86" y1="403.99" x2="362.74" y2="366.96"/><line class="l" x1="343.66" y1="438.68" x2="362.65" y2="367.33"/></g></g><circle class="t" cx="361.17" cy="365.19" r="76.38" transform="translate(-72.19 89.5) rotate(-12.85)"/><circle class="ab" cx="361.17" cy="365.19" r="17.19"/><circle class="aq" cx="361.17" cy="365.19" r="11"/><circle class="ab" cx="361.17" cy="365.19" r="7.24"/><circle class="p" cx="361.17" cy="365.19" r="82.54" transform="translate(-152.45 362.35) rotate(-45)"/><path class="k" d="M454.43,365.19c0-51.5-41.75-93.25-93.25-93.25"/><line class="p" x1="538.05" y1="297.67" x2="546.61" y2="307.31"/><path class="p" d="M480.15,333.04s70.74-11.79,101.83-125.41"/><path class="aq" d="M570.95,188.68l80.51,178.05c.63,1.38,1.99,2.2,3.41,2.2,.52,0,1.04-.11,1.54-.33,1.88-.85,2.72-3.07,1.87-4.95l-80.51-178.05-6.82,3.08Z"/><line class="h" x1="494.8" y1="369.01" x2="432.87" y2="235.73"/><polyline class="o" points="453.35 284.33 361.17 365.19 488.13 365.19 605.32 256.22"/><circle class="ab" cx="492.89" cy="364.36" r="9.83"/><circle class="j" cx="492.89" cy="364.36" r="20.7"/><path class="r" d="M433.09,234.78h-23.57c-3.56,0-6.45-2.89-6.45-6.45v-4.51"/><path class="aa" d="M440.25,231.92h-44.91c-7.63,0-13.82-6.19-13.82-13.82h58.73c3.81,0,6.91,3.09,6.91,6.91h0c0,3.82-3.09,6.91-6.91,6.91Z"/><line class="q" x1="492.89" y1="364.36" x2="519.37" y2="409.74"/><rect class="ab" x="498.56" y="408.32" width="46.34" height="7.08" rx="3.54" ry="3.54"/><g><path class="ae" d="M438.73,31.92c-6.08-4.72-15.24-2.42-21.3,2.34-6.06,4.76-10.24,11.49-15.85,16.76-5.3,4.98-11.87,8.6-18.92,10.41-19.31,4.98-39.19-3.62-58.94-6.31-8.28-1.13-17.62-.88-23.74,4.81-4.11,3.82-6.04,9.63-5.84,15.23,.19,5.61,2.34,11.01,5.35,15.74,2.81,4.42,6.6,8.49,11.56,10.18,7.51,2.56,16.44-.71,23.39,3.13,4.45,2.46,7.02,7.37,8.33,12.29,1.3,4.92,1.58,10.06,2.82,14.99,3.53,14.12,16.29,26.16,30.85,26.42,0,0,32.94,11.98,30.14,.58-8.58-34.91,42.77-60.21,17.02-99.3-9.59-14.56,15.14-27.28,15.14-27.28Z"/><path class="ae" d="M439.8,30.07c-8.35-6.28-19.71-1.46-26.42,4.87-3.78,3.56-6.88,7.75-10.38,11.57s-7.57,7.13-12.24,9.55c-20.93,10.87-44.35,.16-65.8-2.91-9.29-1.33-20.41-1.34-27.33,6.09-7.54,8.1-6.64,20.1-1.93,29.35,2.29,4.5,5.4,8.74,9.47,11.76s9.15,3.92,14.27,3.96c4.78,.03,10.13-.59,14.4,2.02,4.04,2.48,6.03,7.23,7.09,11.65,1.31,5.45,1.52,11.13,3.28,16.48,1.46,4.42,3.71,8.48,6.59,12.12,5.59,7.09,13.76,12.16,22.78,13.25,.53,.06,1.06,.11,1.59,.15,.16,.01,1.23,.09,.69-.02,.09,.02,.19,.07,.27,.1,.5,.18,1.01,.35,1.52,.52,2.01,.68,4.03,1.31,6.07,1.89,5.27,1.52,10.82,2.96,16.34,3.05,2.12,.03,4.56-.14,6.39-1.34,2.07-1.36,2.69-3.61,2.24-5.96-.6-3.14-1.08-5.98-.94-9.24,.13-3.08,.67-5.98,1.55-9.03,3.72-12.86,12.18-23.82,17.86-35.88,2.89-6.14,5.14-12.57,5.72-19.37,.62-7.31-1.04-14.56-4.28-21.11-.94-1.9-2.03-3.71-3.17-5.5-.9-1.4-1.55-2.8-1.83-4.45-.18-1.08-.08-2.59,.19-3.69,.36-1.46,.8-2.43,1.58-3.74,2.75-4.64,7.24-8.11,11.75-10.93,.88-.55,1.76-1.08,2.68-1.55,2.44-1.26,.29-4.94-2.15-3.68-3.22,1.66-6.26,3.83-9.03,6.16-4.61,3.88-8.99,9.1-9.36,15.37-.22,3.73,1.34,6.8,3.25,9.87s3.66,6.62,4.76,10.24c1.88,6.22,1.87,12.67,.34,18.9-3.14,12.78-11.21,23.66-17.1,35.27-2.92,5.75-5.49,11.81-6.51,18.21-.52,3.26-.71,6.57-.36,9.86,.18,1.72,.46,3.42,.87,5.1,.03,.11,.05,.21,.07,.32,.12,.5-.02-.35,0-.04,.01,.21,0,.42,.02,.62,.02,.3,.18-.41,0,.06-.25,.61,.08-.06-.02,.15-.06,.13-.44,.74-.05,.13-.07,.11-.22,.25-.33,.32,.74-.47-1.04,.43-.29,.16-.38,.14-.77,.25-1.17,.34-.12,.03-.97,.14-.37,.07-.28,.03-.56,.06-.85,.07-2.52,.15-4.75-.17-6.96-.56-4.96-.87-9.84-2.26-14.63-3.83-.97-.32-1.94-.76-2.93-1-.8-.2-1.71-.11-2.53-.19-1.04-.09-2.07-.27-3.09-.5-1.99-.45-3.94-1.11-5.78-2-7.65-3.69-13.8-10.53-16.78-18.48-3.63-9.66-1.98-21.28-9.48-29.31-3.51-3.76-8.33-5.08-13.32-5.3s-9.91,.54-14.59-1.12c-4.37-1.55-7.68-5.33-10.1-9.14-2.75-4.33-4.83-9.27-5.05-14.45-.2-4.55,1.05-9.36,4.12-12.82s7.23-5.02,11.59-5.58c4.78-.61,9.64-.09,14.36,.69,5.6,.93,11.12,2.22,16.65,3.47,10.82,2.44,22.03,4.88,33.18,3.62,10.55-1.19,20.42-5.71,27.96-13.24,6.77-6.76,12.03-16.4,21.75-19.3,4.05-1.21,8.3-1.05,11.77,1.55,.92,.69,2.38,.15,2.92-.77,.64-1.09,.16-2.22-.77-2.92Z"/></g><path class="ae" d="M427.63,64.08s-22.22-21.28-9.46-33.1c12.77-11.82,37.51-4.81,40.19,16.31l-30.74,16.79Z"/><g><path class="x" d="M421.25,115.19c18.03,17.95,90.11,32.43,105.22,7.99,9.07-14.67,14.89-37.83,18.57-48.76,5.34-15.87,7.62-16.81,9.18-31.46-1.93,4.71-3.31,8.41-4.83,12.79,.48-6.09,1.53-12.42,2.56-18.22,.11-.62-1.02,.67-1.26,1.24-1.84,4.4-3.74,9.43-5.01,14.25,.02-6.22,.92-12.41,1.72-18.5,.07-.55-.48-.66-.68-.15-2.29,5.71-4.43,11.9-5.88,17.68-.35-.65,2.29-17.41-.38-15.01-2.67,2.39-3.64,15.74-5,20.28-.44-.09-2.14-12.74-4.22-9.86-1.35,1.87,.63,10.44,.79,14.76,.1,2.78,.77,5.58-.87,9.95-2.98,7.96-13.23,24.46-18.48,29.63-17.76,17.51-64.89-5.4-80.62-16.48-4.95-.34-16.63-5.89-18.86,5.31-2.23,11.2-9.99,6.62,8.04,24.57Z"/><path class="ah" d="M479.41,101.43c-16.35,3.09-27.14-7.55-48.75-15.96,0,0-11.21-5.02-19.02,6.62-7.81,11.64,8.66,22.25,8.66,22.25,16.01,10.91,29.23,27,46.58,23.03l12.53-35.94Z"/><path class="af" d="M478.7,104.74l-4.89,31.68s-1.12-1.84-5.36-1.58l10.25-30.11Z"/><g class="al"><g><path class="ai" d="M420.2,86.28c13.76,11.7,30.51,19.77,48.26,23.14,5.06,.96,10.19,1.55,15.34,1.76,2.75,.11,2.74-4.15,0-4.27-17.25-.7-34.18-5.98-48.84-15.09-4.12-2.56-8.04-5.42-11.74-8.56-2.08-1.77-5.11,1.23-3.02,3.02h0Z"/><path class="ai" d="M410.33,94.12c14.86,10.97,31.72,19.22,49.49,24.27,4.99,1.42,10.05,2.57,15.15,3.47,1.13,.2,2.3-.31,2.62-1.49,.28-1.03-.35-2.42-1.49-2.62-17.85-3.15-35.06-9.48-50.67-18.72-4.46-2.64-8.78-5.51-12.95-8.59-.93-.68-2.38-.15-2.92,.77-.63,1.08-.16,2.23,.77,2.92h0Z"/><path class="ai" d="M407.18,100.97c15.53,14.98,35.08,25.7,56.05,30.77,5.9,1.43,11.91,2.39,17.96,2.92,2.73,.24,2.72-4.03,0-4.27-20.63-1.82-40.64-9.33-57.54-21.27-4.77-3.37-9.25-7.12-13.46-11.17-1.98-1.91-5,1.11-3.02,3.02h0Z"/></g></g></g><g><path class="ad" d="M427.95,48.85c-.15,.35-.54,.5-.86,.32-1.35-.75-4.76-2.14-6.96,1.43-2.23,3.61,2.76,6.62,4.42,8.28,2.43,2.43,6.75,10.97,6.37,19.43-.27,6.12-5.84,18.86-5.84,18.86,0,0,17.58,9.25,24.41-.21,0,0-6.39-19.89-4.84-24.87,.03-.11,9.48,1.65,13.33-14.73,3.63-15.43-7.41-20.11-9.98-20.96-2.17-.72-12.51-5.13-20.05,12.43Z"/><path class="aj" d="M447.19,88.82c-.29,.13-10.46,10.85-10.46,10.85,0,0,7.91,3.69,12.76-2.69l-2.3-8.16Z"/><path class="aa" d="M456.3,61.52l-8.4-1.29s1.48,4.36,3.98,4.31c2.5-.05,4.42-3.02,4.42-3.02Z"/><path class="aj" d="M426.61,51.38c-1.27-.6-3.21-.38-3.81,.89-.6,1.27,.37,3.12,1.65,3.72"/><path class="aj" d="M453.74,55.63l-1.1,4.17,2.24,.13c.41,.02,.7-.4,.53-.78l-1.66-3.53Z"/><path class="ae" d="M452.38,35.55s-15.08,16.56-25.29,13.63c-10.22-2.93,3.56-23.69,15.77-19.82,7.63,2.41,9.52,6.2,9.52,6.2Z"/><path class="aj" d="M444.71,72.12s-5.29-.42-9.7-4.55c-2.47-2.31,2.68,11.46,10.09,12.39,0,0-.29-4.15-.38-7.84Z"/><path class="ae" d="M448.18,48.85c-.84,.43,.67-1.8,1.75-1.94s2.06,.52,2.17,1.45c0,0-1.91-.55-3.93,.48Z"/><path class="ae" d="M458.46,48.28c-1.02-.38-2.19,.02-2.52,.91,0,0,1.3-.06,2.71,.7"/><path class="ae" d="M450.18,54.51c-.07,.76,.17,1.4,.54,1.43,.37,.03,.72-.55,.79-1.31,.07-.76-.17-1.4-.54-1.43-.37-.03-.72,.55-.79,1.31Z"/><path class="ae" d="M455.4,55.01c-.07,.72,.16,1.34,.51,1.37,.35,.03,.69-.53,.76-1.25s-.16-1.34-.51-1.37c-.35-.03-.69,.53-.76,1.25Z"/><path class="w" d="M437.91,59.51c.13,2.28,2.07,4.02,4.35,3.9,2.28-.13,4.02-2.07,3.9-4.35-.13-2.28-2.07-4.02-4.35-3.9-2.28,.13-4.02,2.07-3.9,4.35Z"/><g><g><path class="u" d="M461.02,54.15c-.15,3.49-1.69,6.26-3.45,6.18-1.75-.08-3.06-2.96-2.91-6.45,.15-3.49,1.69-6.26,3.45-6.18s3.06,2.96,2.91,6.45Z"/><path class="u" d="M453.88,53.36c-.17,3.95-2.4,7.07-4.98,6.96-2.58-.11-4.53-3.41-4.37-7.36,.17-3.95,2.4-7.07,4.98-6.96,2.58,.11,4.53,3.41,4.37,7.36Z"/><line class="v" x1="425.98" y1="48.47" x2="444.54" y2="51.55"/></g><g class="ap"><path class="aa" d="M448.75,53.43l1.79-2.18c.61-.74,.34-1.89-.56-2.23-1.35-.5-3.15-.37-3.74,3.3-.23,1.42,1.6,2.21,2.51,1.11Z"/><path class="aa" d="M457.68,53.57l.98-1.75c.34-.6,.19-1.52-.31-1.79-.74-.4-1.72-.3-2.05,2.65-.13,1.14,.87,1.78,1.37,.89Z"/></g></g></g><path class="x" d="M447.72,90.52c.97,.87,15.25,27.37,13.33,38.81-1.29,7.67-11.84,24.61-16.71,39.56,0,0-23.04,1.07-37.2-5.04-1.16-11.97-9.92-54.02,5.97-72.6,0,0,9.77-1.33,13.77-1.17,0,0,17.79,14.39,20.84,.44Z"/><g><path class="ah" d="M447.72,90.52c.97,.87,15.25,27.37,13.33,38.81-1.29,7.67,3.61,21.93-1.27,36.88,0,0-25.06-.95-61.51-8.43-1.16-11.97-1.06-47.96,14.83-66.54,0,0,9.77-1.33,13.77-1.17,0,0,17.79,14.39,20.84,.44Z"/><g class="ao"><g><path class="ai" d="M406.07,159.75c2.33-19.51,4.77-39.65,12.93-57.74,2.28-5.05,5.01-9.89,8.2-14.42,.66-.94,.17-2.37-.77-2.92-1.07-.62-2.25-.18-2.92,.77-11.8,16.72-16.56,37.05-19.48,57-.84,5.76-1.55,11.54-2.24,17.32-.14,1.15,1.08,2.13,2.13,2.13,1.27,0,2-.98,2.13-2.13h0Z"/><path class="ai" d="M418.03,161.95c1.83-19.01,5.03-37.88,9.56-56.44,1.3-5.31,2.7-10.59,4.21-15.84,.76-2.64-3.36-3.77-4.11-1.13-5.37,18.7-9.39,37.77-12.01,57.05-.74,5.45-1.38,10.9-1.91,16.37-.11,1.15,1.06,2.13,2.13,2.13,1.25,0,2.02-.98,2.13-2.13h0Z"/><path class="ai" d="M430.06,163.16c3.36-18.72,5.79-37.61,7.25-56.58,.41-5.39,.75-10.78,1.01-16.18,.13-2.74-4.13-2.74-4.27,0-.9,18.7-2.71,37.36-5.5,55.87-.79,5.26-1.66,10.51-2.6,15.75-.2,1.13,.31,2.3,1.49,2.62,1.03,.28,2.42-.35,2.62-1.49h0Z"/><path class="ai" d="M445.8,167.02c3.22-19.82,2.77-39.92,1.39-59.88-.39-5.69-.85-11.37-1.32-17.05-.22-2.72-4.49-2.74-4.27,0,1.6,19.68,3.21,39.46,1.93,59.2-.36,5.56-.96,11.09-1.85,16.59-.18,1.14,.29,2.3,1.49,2.62,1.02,.28,2.44-.35,2.62-1.49h0Z"/><path class="ai" d="M459.9,168.62c4.12-20.36,3.4-41.6-2.11-61.63-1.56-5.67-3.53-11.2-5.82-16.62-.45-1.06-2.02-1.29-2.92-.77-1.1,.64-1.22,1.85-.77,2.92,7.74,18.28,11.02,38.39,9.74,58.18-.36,5.64-1.12,11.24-2.24,16.78-.54,2.68,3.57,3.83,4.11,1.13h0Z"/></g></g></g><g><path class="x" d="M533.55,175.67l-20.12,1.48s-95.23-11.34-103.84-68.35c0,0-3.47-19.32,11.31-21.39,14.78-2.07,18.87,9.6,18.87,9.6,4.85,36.88,39.62,55.5,64.34,60.49l29.09,6.34c3.98,.89,4.23-.38,8.21-1.08,6.18-1.1,21.07,5.85,22.41,6.53,2.07,1.04-19.62,.47-19.62,.47,0,0-15.6-1.18-10.64,5.91Z"/><path class="ah" d="M469.26,141.76c-14.17-10.01-20.6-23.11-29.49-44.74,0,0-4.09-11.67-18.87-9.6-14.78,2.07-11.31,21.39-11.31,21.39,2.9,19.18,6.31,30.27,21.89,40.42l37.78-7.46Z"/><g class="as"><path class="ai" d="M412.75,90.55c-1.32,17.01,3.63,34.44,13.5,48.34,2.82,3.97,6.01,7.66,9.56,10.99,2,1.88,5.02-1.13,3.02-3.02-11.81-11.07-19.59-26.4-21.52-42.5-.55-4.59-.64-9.22-.29-13.82,.21-2.74-4.05-2.72-4.27,0h0Z"/><path class="ai" d="M420.04,87.71c1.42,17.58,7.59,34.7,17.83,49.07,2.88,4.05,6.06,7.88,9.52,11.45,1.91,1.97,4.93-1.04,3.02-3.02-11.68-12.04-19.94-27.19-23.86-43.5-1.11-4.61-1.86-9.29-2.24-14.01-.22-2.72-4.49-2.74-4.27,0h0Z"/><path class="ai" d="M429.22,88.78c2.16,9.2,4.38,18.41,8.21,27.08,3.51,7.96,8.69,15.14,14.63,21.47,3.15,3.37,6.62,6.56,10.57,8.97,2.35,1.43,4.5-2.25,2.15-3.68-6.66-4.06-12.1-10.43-16.62-16.69-5.11-7.08-8.52-14.93-11-23.28-1.47-4.95-2.65-9.97-3.83-14.99-.63-2.67-4.74-1.54-4.11,1.13h0Z"/></g><path class="aj" d="M463.2,143.9l-12.97,14.7s-11.45-6.25-14.7-9.2l27.68-5.5Z"/></g><g><path class="ad" d="M509.5,368.12c.23,10.11-2.03,34.73-2.03,34.73l42.75,3.15c-5.07-3.31-22.53-17.54-22.53-17.54l-5.96-19.4s-12.27-.77-12.23-.95Z"/><path class="ak" d="M527.81,388.5l23.05,17.07c1.04,.76,.55,2.42-.73,2.46-10.5,.27-38.79,.8-46.23,.91-.9,.01-1.55-.86-1.3-1.73,1.42-4.84,4.24-18.43,5.44-22.36,.19-.62,7.03,10.56,10.09,9.28,2.63-1.1,9.46-5.59,9.69-5.63Z"/><path class="n" d="M529.18,389.4l-4.59,4.75c-1.09,1.13-1.06,2.93,.07,4.02h0c1.13,1.09,2.93,1.06,4.02-.07l5.15-5.34"/><path class="aj" d="M505.66,368.75l2.38,16.09s5.19,7.64,6.16,7.69c.97,.05-1.6-23.15-1.6-23.15l-6.94-.63Z"/></g><path class="ar" d="M406.67,163.53s-18.91,29.63-16.39,40.35c4.46,18.95,32.15,27.11,34.05,30.26s51.07,64.31,81.96,145.01l26.48-1.26s-22.07-109.7-31.52-124.83c-32.33-51.73-55.48-83.85-55.48-83.85l-39.09-5.67Z"/><path class="an" d="M406.67,163.53s-18.91,29.63-16.39,40.35c4.46,18.95,32.15,27.11,34.05,30.26s51.07,64.31,81.96,145.01l26.48-1.26s-25.8-25.85-38.09-49.49c-12.29-23.64-49.18-100.25-69.51-110.65-20.33-10.4-18.49-54.22-18.49-54.22Z"/><g><path class="ae" d="M424.48,62.72c5.27,11.84,14.11,21.65,21.64,32.2,7.53,10.55,14.02,22.77,13.38,35.72-7.75-11.84-15.66-23.57-23.75-35.18-2.42-3.47-5.12-7.13-9.13-8.46-3.39-1.12-7.17-.33-10.33,1.34s-5.79,4.15-8.39,6.6l-5.16,4.87c2.25-14.08,16.44-23.21,21.46-36.56"/><path class="ae" d="M422.64,63.8c8.25,18.36,24.91,31.66,31.97,50.66,1.93,5.2,3,10.62,2.76,16.18l3.97-1.08c-6.68-10.21-13.48-20.33-20.41-30.37-2.94-4.26-5.71-9.11-9.92-12.26-4.59-3.43-10.46-3.11-15.41-.64-2.65,1.32-4.98,3.25-7.16,5.23-2.44,2.21-4.81,4.51-7.2,6.77l3.56,2.08c1.16-6.97,5.32-12.74,9.59-18.18,4.53-5.77,9.22-11.45,11.87-18.37,.41-1.08-.46-2.34-1.49-2.62-1.2-.33-2.21,.41-2.62,1.49-5.12,13.37-19.02,21.91-21.46,36.56-.34,2.04,1.92,3.63,3.56,2.08,3.71-3.5,7.31-7.52,11.64-10.27,3.91-2.48,8.79-3.54,12.75-.58,1.73,1.3,3.12,3.07,4.37,4.81,1.54,2.13,3.01,4.31,4.51,6.48,3.23,4.68,6.44,9.39,9.62,14.11,3.54,5.26,7.05,10.55,10.52,15.85,1.17,1.78,3.88,1.07,3.97-1.08,.92-21.43-14.97-37.76-26.49-54.01-3.36-4.74-6.44-9.68-8.83-14.99-.47-1.05-2-1.3-2.92-.77-1.08,.63-1.24,1.86-.77,2.92h0Z"/></g></g></g></g></svg>