<?xml version="1.0" encoding="UTF-8"?><svg xmlns="http://www.w3.org/2000/svg" viewBox="0 0 199.18 126.09"><defs><style>.d{fill:#76b224;}</style></defs><g id="a"/><g id="b"><g id="c"><g><path class="d" d="M67.24,23.28s1.08-2.81,1.06-2.75,.6-1.19-1-2.45c-.97-.77-2.1-1.37-3.1-2.11-1.87-1.39-3.53-3.16-3.5-5.64,.02-1.95,.71-4.27,2-5.77,.58-.67,1.28-1.22,2.05-1.68,2.7-1.6,5.95-1.99,9.03-2.07l3.77-.1s2.06,2.31-.18,3.8c-.18,.12-.78,.04-.98,.05-.69,.04-1.39,.07-2.08,.12-1.94,.15-4,.21-5.86,.78-1.79,.55-3.13,1.65-3.57,3.53-.19,.81-.16,1.7,.27,2.4,.69,1.16,2.13,1.51,3.15,2.28,1.59,1.2,3.12,2.44,3.8,4.39,.83,2.4-.44,4.56-1.34,6.73,0,0-2.7,.42-3.51-1.54Z"/><rect class="d" x="128.84" y="26.2" width="3.84" height="12.94" rx="1.92" ry="1.92" transform="translate(18.53 -41.97) rotate(19.6)"/><g><path class="d" d="M37.4,50.2C16.74,50.2,0,66.96,0,87.64s16.74,37.43,37.4,37.43,37.4-16.76,37.4-37.43-16.74-37.43-37.4-37.43Zm0,70.44c-18.21,0-32.98-14.78-32.98-33.01s14.77-33.01,32.98-33.01,32.98,14.78,32.98,33.01-14.77,33.01-32.98,33.01Z"/><path class="d" d="M44.91,87.64c0,4.15-3.36,7.52-7.51,7.52s-7.51-3.37-7.51-7.52,3.36-7.52,7.51-7.52,7.51,3.37,7.51,7.52Z"/><path class="d" d="M44.91,87.64c0,4.15-3.36,7.52-7.51,7.52s-7.51-3.37-7.51-7.52,3.36-7.52,7.51-7.52,7.51,3.37,7.51,7.52Z"/><path class="d" d="M44.91,87.64c0,4.15-3.36,7.52-7.51,7.52s-7.51-3.37-7.51-7.52,3.36-7.52,7.51-7.52,7.51,3.37,7.51,7.52Z"/><path class="d" d="M37.4,80.12c-4.15,0-7.51,3.37-7.51,7.52s3.36,7.52,7.51,7.52,7.51-3.37,7.51-7.52-3.36-7.52-7.51-7.52Zm0,12.6c-2.8,0-5.07-2.27-5.07-5.08s2.27-5.08,5.07-5.08,5.07,2.27,5.07,5.08-2.27,5.08-5.07,5.08Z"/></g><g><path class="d" d="M161.78,51.22c-20.66,0-37.4,16.76-37.4,37.43s16.74,37.43,37.4,37.43,37.4-16.76,37.4-37.43-16.74-37.43-37.4-37.43Zm0,70.44c-18.21,0-32.98-14.78-32.98-33.01s14.77-33.01,32.98-33.01,32.98,14.78,32.98,33.01-14.77,33.01-32.98,33.01Z"/><path class="d" d="M169.29,88.66c0,4.15-3.36,7.52-7.51,7.52s-7.51-3.37-7.51-7.52,3.36-7.52,7.51-7.52,7.51,3.37,7.51,7.52Z"/><path class="d" d="M169.29,88.66c0,4.15-3.36,7.52-7.51,7.52s-7.51-3.37-7.51-7.52,3.36-7.52,7.51-7.52,7.51,3.37,7.51,7.52Z"/><path class="d" d="M169.29,88.66c0,4.15-3.36,7.52-7.51,7.52s-7.51-3.37-7.51-7.52,3.36-7.52,7.51-7.52,7.51,3.37,7.51,7.52Z"/><path class="d" d="M161.78,81.13c-4.15,0-7.51,3.37-7.51,7.52s3.36,7.52,7.51,7.52,7.51-3.37,7.51-7.52-3.36-7.52-7.51-7.52Zm0,12.6c-2.8,0-5.07-2.27-5.07-5.08s2.27-5.08,5.07-5.08,5.07,2.27,5.07,5.08-2.27,5.08-5.07,5.08Z"/></g><path class="d" d="M163.03,89.76c.36-.73,.29-1.62-.24-2.29-.07-.11-.16-.21-.26-.31l-34.96-40.18s-.03-.03-.05-.05l1.76-4.54c1.2-.07,2.31-.85,2.72-2.05l.03-.09c.55-1.59-.3-3.34-1.89-3.89l-1.88-.65c-1.59-.55-3.34,.3-3.89,1.89l-.03,.09c-.39,1.13-.07,2.33,.71,3.14l-1.8,4.65-57.93-9.31,3.11-6.4c.04-.09,.08-.18,.11-.28,.86,.01,1.7-.42,2.16-1.21l.55-.95c.67-1.16,.27-2.66-.89-3.33l-2.35-1.36c-1.16-.67-2.66-.27-3.33,.89l-.55,.95c-.48,.84-.41,1.85,.11,2.6-.12,.15-.23,.31-.32,.49l-28.12,57.95c-.6,1.24-.08,2.74,1.16,3.35,1.24,.6,2.74,.08,3.35-1.16l20.13-41.47,36.28,39.02c.82,.88,2.21,.93,3.09,.11h0c.88-.82,.93-2.21,.11-3.09L62.49,42.02l1.09-2.25s.05,.01,.08,.02l58.18,9.35-11.74,30.37c-.4,1.04,.12,2.21,1.16,2.61l.43,.17c1.04,.4,2.21-.12,2.61-1.16l11.44-29.59,30.95,35.57-37.06,2.76c-.85,.06-1.5,.81-1.43,1.66l.07,.98c.06,.85,.81,1.5,1.66,1.43l40.55-3.02c.52,.14,1.09,.09,1.58-.17,.46-.16,.81-.53,.96-.98Z"/><g><rect class="d" x="102.17" y="91.09" width="3.47" height="18.72" rx="1.63" ry="1.63" transform="translate(41.49 -29.9) rotate(20.38)"/><ellipse class="d" cx="107.85" cy="91.34" rx="10.87" ry="10.59"/><path class="d" d="M94.41,107.45h11.73c.67,0,1.22,.55,1.22,1.22v3.32c0,.61-.49,1.1-1.1,1.1h-11.99c-.62,0-1.13-.51-1.13-1.13v-3.24c0-.7,.57-1.26,1.26-1.26Z" transform="translate(-4 3.77) rotate(-2.11)"/></g><path class="d" d="M115.56,23.08c.19-.31,.29-.49,.66-.68,1.75-.9,3.89-.85,5.8-.93,2.26-.1,4.52,.19,6.79,.1,2.17-.08,4.28-.58,6.42-.84,1.62-.2,3.27-.33,4.9-.26,1.02,.05,2.18,.06,3.04,.68s1.03,1.74,1.1,2.75l-.13-1.26c.03,.32,.24,.66,.29,.99,.06,.36,.07,.73,.03,1.09-.07,.72-.32,1.43-.73,2.04-.83,1.22-2.52,2.2-3.96,2.42-.24,.04-.48,.05-.73,.06-1.81,.07-3.66-.08-5.47-.18-1.81-.1-3.62-.24-5.42-.43s-3.61-.43-5.4-.76c-.86-.16-1.71-.33-2.55-.54-.39-.1-.78-.2-1.17-.31-.32-.09-.78-.34-1.11-.34,0,0-3.72-1.39-2.36-3.6Z"/><rect class="d" x="75.55" y="0" width="13.73" height="5.36" rx="2.68" ry="2.68"/></g></g></g></svg>