<?xml version="1.0" encoding="UTF-8"?><svg xmlns="http://www.w3.org/2000/svg" viewBox="0 0 53.73 53.73"><defs><style>.d{fill:#76b224;opacity:.71;}.e{fill:#fff;}</style></defs><g id="a"/><g id="b"><g id="c"><g><path class="d" d="M26.87,53.73h0C12.03,53.73,0,41.7,0,26.87H0C0,12.03,12.03,0,26.87,0h0c14.84,0,26.87,12.03,26.87,26.86h0c0,14.84-12.03,26.87-26.87,26.87Z"/><g><path class="e" d="M26.87,14.79c3.93,0,4.4,.01,5.95,.09,1.44,.07,2.22,.31,2.74,.51,.69,.27,1.18,.59,1.69,1.1,.52,.52,.83,1.01,1.1,1.69,.2,.52,.44,1.3,.51,2.74,.07,1.55,.09,2.02,.09,5.95s-.02,4.4-.09,5.95c-.07,1.44-.31,2.22-.51,2.74-.27,.69-.59,1.18-1.1,1.69-.52,.52-1.01,.83-1.69,1.1-.52,.2-1.3,.44-2.74,.51-1.55,.07-2.02,.09-5.95,.09s-4.4-.01-5.95-.09c-1.44-.07-2.22-.31-2.73-.51-.69-.27-1.18-.59-1.69-1.1-.52-.52-.83-1.01-1.1-1.69-.2-.52-.44-1.3-.51-2.74-.07-1.55-.09-2.02-.09-5.95s.01-4.4,.09-5.95c.07-1.44,.31-2.22,.51-2.74,.27-.69,.59-1.18,1.1-1.69,.52-.52,1.01-.83,1.69-1.1,.52-.2,1.3-.44,2.73-.51,1.55-.07,2.02-.09,5.95-.09m0-2.65c-4,0-4.5,.02-6.07,.09-1.57,.07-2.64,.32-3.58,.68-.97,.38-1.79,.88-2.61,1.7s-1.32,1.64-1.7,2.61c-.36,.94-.61,2.01-.68,3.58-.07,1.57-.09,2.07-.09,6.07s.02,4.5,.09,6.07c.07,1.57,.32,2.64,.68,3.58,.38,.97,.88,1.79,1.7,2.61s1.64,1.32,2.61,1.7c.94,.36,2.01,.61,3.58,.68,1.57,.07,2.07,.09,6.07,.09s4.5-.02,6.07-.09c1.57-.07,2.64-.32,3.58-.68,.97-.38,1.79-.88,2.61-1.7,.82-.82,1.32-1.64,1.7-2.61,.36-.94,.61-2.01,.68-3.58,.07-1.57,.09-2.07,.09-6.07s-.02-4.5-.09-6.07c-.07-1.57-.32-2.64-.68-3.58-.38-.97-.88-1.79-1.7-2.61-.82-.82-1.64-1.32-2.61-1.7-.94-.36-2.01-.61-3.58-.68-1.57-.07-2.07-.09-6.07-.09"/><path class="e" d="M26.87,19.3c-4.18,0-7.56,3.39-7.56,7.56s3.39,7.56,7.56,7.56,7.56-3.39,7.56-7.56-3.39-7.56-7.56-7.56m0,12.47c-2.71,0-4.91-2.2-4.91-4.91s2.2-4.91,4.91-4.91,4.91,2.2,4.91,4.91-2.2,4.91-4.91,4.91"/><path class="e" d="M36.5,19c0,.98-.79,1.77-1.77,1.77s-1.77-.79-1.77-1.77,.79-1.77,1.77-1.77,1.77,.79,1.77,1.77"/></g></g></g></g></svg>