<?xml version="1.0" encoding="UTF-8"?><svg xmlns="http://www.w3.org/2000/svg" viewBox="0 0 53.73 53.73"><defs><style>.d{fill:#76b224;opacity:.71;}.e{fill:#fff;}</style></defs><g id="a"/><g id="b"><g id="c"><g><path class="d" d="M26.87,53.73h0C12.03,53.73,0,41.7,0,26.87H0C0,12.03,12.03,0,26.87,0h0c14.84,0,26.87,12.03,26.87,26.86h0c0,14.84-12.03,26.87-26.87,26.87Z"/><g><g><rect class="e" x="14.68" y="20.88" width="5.56" height="17.96"/><path class="e" d="M17.44,18.52c1.82,0,3.29-1.49,3.29-3.32s-1.47-3.31-3.29-3.31-3.29,1.48-3.29,3.31,1.47,3.32,3.29,3.32Z"/></g><path class="e" d="M29.13,29.41c0-2.52,1.16-4.03,3.39-4.03,2.04,0,3.03,1.44,3.03,4.03v9.43h5.53v-11.37c0-4.81-2.73-7.14-6.54-7.14s-5.41,2.97-5.41,2.97v-2.42h-5.33v17.96h5.33v-9.43Z"/></g></g></g></g></svg>