<?xml version="1.0" encoding="UTF-8"?><svg xmlns="http://www.w3.org/2000/svg" viewBox="0 0 684.86 562.89"><defs><style>.d{fill:none;}.e{fill:#c95021;}.f{fill:#77b425;}</style></defs><g id="a"/><g id="b"><g id="c"><g><path class="d" d="M426.68,342.72h-22.27v38.61h20.34c6.07,0,10.61-1.55,13.61-4.65,3-3.1,4.5-7.72,4.5-13.86,0-6.45-1.28-11.41-3.85-14.89-2.57-3.47-6.68-5.21-12.35-5.21Z"/><path class="d" d="M433.82,319.5c3.14-3.01,4.71-7.35,4.71-13.01,0-6.34-1.62-10.99-4.86-13.95-3.24-2.95-8.13-4.43-14.68-4.43h-14.57v36.1h15.89c5.87-.12,10.37-1.69,13.51-4.71Z"/><path class="d" d="M259.8,286.15c-7.56,0-13.23,2.46-17,7.37-3.78,4.91-5.67,12.25-5.67,22.02v38.26c0,9.83,1.92,17.2,5.77,22.11,3.85,4.91,9.51,7.37,17,7.37s13.09-2.46,17-7.37c3.91-4.91,5.87-12.29,5.87-22.11v-38.26c0-9.7-1.96-17.03-5.87-21.97-3.91-4.95-9.61-7.42-17.1-7.42Z"/><polygon class="f" points="87.04 381.33 28.84 381.33 28.84 343 78.33 343 78.33 321.88 28.84 321.88 28.84 288.11 86.83 288.11 86.83 266.99 0 266.99 0 402.45 87.04 402.45 87.04 381.33"/><path class="f" d="M194.42,358.82h-27.73c.34,8.93-.86,15.24-3.59,18.93-2.73,3.69-7.57,5.54-14.52,5.54s-12.47-2.33-16.14-6.98c-3.68-4.66-5.52-11.77-5.52-21.33v-40.7c0-9.44,1.72-16.48,5.16-21.14s8.4-6.99,14.88-6.99c7.56,0,12.85,1.96,15.89,5.88,3.04,3.92,4.35,10.33,3.95,19.24h27.73l.3-.56c-.27-15.07-4.4-26.45-12.4-34.15-8-7.69-19.82-11.54-35.47-11.54-14.78,0-26.57,4.33-35.37,12.98-8.81,8.65-13.21,20.83-13.21,36.52v40.47c0,15.76,4.55,27.93,13.66,36.52,9.11,8.59,21.29,12.89,36.54,12.89s26.78-3.78,34.61-11.35c7.83-7.57,11.67-18.79,11.54-33.68l-.3-.56Z"/><path class="f" d="M311.41,315.83c0-15.82-4.72-28.24-14.17-37.26-9.45-9.02-21.93-13.54-37.45-13.54s-27.93,4.51-37.24,13.54c-9.31,9.03-13.97,21.45-13.97,37.26v37.96c0,15.88,4.66,28.28,13.97,37.22,9.31,8.93,21.76,13.4,37.35,13.4s28.07-4.47,37.45-13.4c9.38-8.93,14.07-21.34,14.07-37.22v-37.96Zm-28.64,37.97c0,9.83-1.96,17.2-5.87,22.11-3.91,4.91-9.58,7.37-17,7.37s-13.16-2.46-17-7.37c-3.85-4.91-5.77-12.29-5.77-22.11v-38.26c0-9.77,1.89-17.11,5.67-22.02,3.78-4.91,9.45-7.37,17-7.37s13.19,2.47,17.1,7.42c3.91,4.95,5.87,12.27,5.87,21.97v38.26Z"/><path class="f" d="M471.52,362.91c0-7.5-1.86-14.05-5.57-19.63s-9.45-9.21-17.21-10.89c6.21-2.48,10.86-6.22,13.97-11.21,3.1-4.99,4.66-10.71,4.66-17.17,0-12.28-4.27-21.52-12.8-27.73-8.54-6.2-20.39-9.3-35.57-9.3h-43.42v135.46h49.19c15.04,0,26.6-3.35,34.66-10.05,8.06-6.7,12.09-16.53,12.09-29.49Zm-67.1-74.8h14.57c6.54,0,11.44,1.48,14.68,4.43,3.24,2.95,4.86,7.6,4.86,13.95,0,5.66-1.57,10-4.71,13.01-3.14,3.02-7.64,4.59-13.51,4.71h-15.89v-36.1Zm33.95,88.57c-3,3.1-7.54,4.65-13.61,4.65h-20.34v-38.61h22.27c5.67,0,9.78,1.74,12.35,5.21,2.56,3.47,3.85,8.44,3.85,14.89s-1.5,10.76-4.5,13.86Z"/><polygon class="f" points="103.41 524.93 102.8 524.93 76.39 425.48 39.04 425.48 39.04 560.94 67.68 560.94 67.68 521.58 65.15 469.67 65.76 469.58 93.59 560.94 112.72 560.94 140.85 468.83 141.46 468.92 139.03 521.58 139.03 560.94 167.67 560.94 167.67 425.48 130.13 425.48 103.41 524.93"/><path class="f" d="M259.16,517.68c0,8.62-1.82,14.79-5.47,18.51s-8.94,5.58-15.89,5.58-11.98-1.95-15.69-5.86c-3.71-3.91-5.57-9.99-5.57-18.24v-92.2h-28.74v92.2c0,14.39,4.6,25.52,13.81,33.4,9.21,7.88,21.27,11.82,36.18,11.82s26.97-3.92,36.18-11.77c9.21-7.85,13.81-19,13.81-33.45v-92.2h-28.64v92.2Z"/><polygon class="f" points="382.94 511.82 382.33 512 337.3 425.48 308.45 425.48 308.45 560.94 337.3 560.94 337.3 474.51 337.9 474.32 382.94 560.94 411.58 560.94 411.58 425.48 382.94 425.48 382.94 511.82"/><g><path class="d" d="M476.96,446.6h-14.07v93.22h14.07c8.03,0,14.22-3.21,18.57-9.64,4.35-6.43,6.53-14.95,6.53-25.57v-23c0-10.55-2.18-19.03-6.53-25.42-4.35-6.39-10.54-9.59-18.57-9.59Z"/><path class="d" d="M598.2,444.64c-7.56,0-13.22,2.46-17,7.37-3.78,4.91-5.67,12.25-5.67,22.02v38.26c0,9.83,1.92,17.2,5.77,22.11,3.85,4.91,9.51,7.37,17,7.37s13.09-2.46,17-7.37c3.91-4.91,5.87-12.29,5.87-22.11v-38.26c0-9.7-1.96-17.03-5.87-21.97-3.91-4.95-9.61-7.42-17.1-7.42Z"/><path class="e" d="M128.67,165.93c18.32,0,35.62,4.35,50.94,12.07l-38.3,78.92c-1.92-1.08-3.99-1.93-6.18-2.49-2.06-.53-4.23-.81-6.46-.81h0c-2.23,0-4.4,.28-6.46,.81-.83,.21-1.64,.47-2.43,.76-.79,.29-1.57,.62-2.32,.98-.38,.18-.75,.37-1.11,.57-2.2,1.19-4.2,2.7-5.96,4.46-.27,.27-.53,.54-.78,.82h48.38l36.44-75.08c24.37,17.38,41.59,44.17,46.36,75.08h15.36c-5-36.91-25.63-68.85-54.99-88.93l6.81-14.02,95.72,102.95h20.52l-109.2-117.45,3.76-7.75c.09,.02,.17,.04,.27,.06l200.16,32.17-35.94,92.98h16.6l32.74-84.72,22.36,25.7c-13.08,16.83-22.08,37-25.51,59.02h15.42c3.1-17.47,10.19-33.56,20.3-47.29l41.15,47.29h19.92l-51.26-58.91c20.63-21.37,49.56-34.67,81.6-34.67,55.84,0,102.26,40.39,111.7,93.58h15.42c-9.59-61.63-62.85-108.8-127.11-108.8-35.86,0-68.28,14.69-91.61,38.37l-26.07-29.97c-.05-.06-.11-.11-.16-.17l6.04-15.63c4.14-.24,7.94-2.92,9.37-7.06l.11-.3c1.38-4,.17-8.3-2.72-11.05l9.73-27.32c5.69,.34,11.46,.73,17.14,.52,.84-.03,1.68-.08,2.5-.21,4.97-.76,10.78-4.14,13.62-8.32,1.41-2.07,2.26-4.51,2.5-7,.12-1.25,.09-2.51-.11-3.74-.18-1.14-.88-2.31-.99-3.41l.2,1.95c-.38-2.72-1.22-5.38-3.55-7.07-2.98-2.15-6.95-2.2-10.47-2.36-5.62-.26-11.28,.22-16.86,.9-7.38,.89-14.63,2.6-22.09,2.88-7.79,.3-15.56-.7-23.35-.36-6.59,.29-13.95,.09-19.96,3.2-1.27,.66-1.61,1.28-2.25,2.34-4.67,7.63,8.13,12.39,8.13,12.39,1.13,0,2.7,.86,3.81,1.17,1.34,.38,2.68,.73,4.04,1.06,2.91,.71,5.84,1.32,8.79,1.86,6.15,1.13,12.35,1.95,18.57,2.61,2.22,.23,4.44,.44,6.66,.63l-8.28,23.26c-4.87-.68-9.74,2.16-11.4,6.98l-.11,.3c-1.34,3.88-.24,8.03,2.46,10.79l-6.18,15.98-199.28-32.03,10.69-22.03c.15-.31,.28-.63,.39-.95,2.95,.05,5.85-1.45,7.42-4.18l1.89-3.27c1.89-3.27,1.3-7.33-1.18-9.95,3.02-7.01,6.73-14.06,4.03-21.8-2.34-6.71-7.61-10.96-13.07-15.1-3.52-2.67-8.46-3.86-10.85-7.85-1.46-2.44-1.56-5.5-.92-8.27,1.49-6.47,6.12-10.26,12.27-12.16,6.43-1.98,13.51-2.17,20.17-2.7,2.34-.18,4.68-.3,7.02-.42,1.67,1.67,3.97,2.7,6.51,2.7h28.8c5.07,0,9.22-4.15,9.22-9.22s-4.15-9.22-9.22-9.22h-28.8c-2.48,0-4.73,1-6.39,2.6-3.81,.1-8.94,.23-8.94,.23-10.58,.27-21.78,1.6-31.05,7.11-2.62,1.56-5.03,3.46-7.04,5.77-4.45,5.13-6.81,13.13-6.89,19.84-.11,8.52,5.6,14.6,12.05,19.39,3.44,2.56,7.33,4.63,10.68,7.27,5.5,4.33,3.39,8.64,3.44,8.43,.04-.13-1.45,3.71-2.54,6.54-3.69-1.22-7.88,.28-9.89,3.76l-1.89,3.27c-1.67,2.89-1.4,6.38,.39,8.96-.42,.51-.8,1.07-1.1,1.7l-33.7,69.44c-17.33-8.7-36.88-13.6-57.59-13.6-65.14,0-118.96,48.45-127.48,111.3h15.36c8.4-54.42,55.39-96.09,112.12-96.09Z"/><path class="e" d="M571.01,260.54c-.34-.23-.69-.46-1.05-.67-3.2-1.94-6.85-3.21-10.76-3.61-.87-.09-1.75-.13-2.64-.13-6.24,0-11.96,2.21-16.43,5.89h32.85c-.63-.52-1.29-1.02-1.97-1.48Z"/><rect class="f" x="492.06" y="266.99" width="28.64" height="135.46"/><path class="f" d="M554.61,391.52c9.11,8.59,21.29,12.89,36.54,12.89s26.79-3.78,34.61-11.35c7.83-7.57,11.67-18.79,11.54-33.68l-.3-.56h-27.73c.34,8.93-.86,15.24-3.59,18.93-2.73,3.69-7.58,5.54-14.52,5.54s-12.47-2.33-16.14-6.98c-3.68-4.66-5.52-11.77-5.52-21.33v-40.7c0-9.44,1.72-16.48,5.16-21.14,3.44-4.66,8.4-6.99,14.88-6.99,7.56,0,12.85,1.96,15.89,5.88,3.04,3.92,4.35,10.33,3.95,19.24h27.73l.3-.56c-.27-15.07-4.4-26.45-12.4-34.15-8-7.69-19.82-11.54-35.47-11.54-14.78,0-26.57,4.33-35.37,12.98-8.8,8.65-13.21,20.83-13.21,36.52v40.47c0,15.76,4.55,27.93,13.66,36.52Z"/><rect class="f" x="656.22" y="266.99" width="28.64" height="135.46"/><path class="f" d="M478.58,425.48h-44.53v135.46h44.53c15.11,0,27.59-5.24,37.45-15.72,9.85-10.48,14.78-24,14.78-40.57v-22.79c0-16.56-4.93-30.1-14.78-40.61-9.85-10.51-22.33-15.77-37.45-15.77Zm23.48,79.14c0,10.62-2.18,19.14-6.53,25.57-4.35,6.42-10.54,9.64-18.57,9.64h-14.07v-93.22h14.07c8.03,0,14.22,3.2,18.57,9.59,4.35,6.4,6.53,14.87,6.53,25.42v23Z"/><path class="f" d="M598.2,423.52c-15.52,0-27.93,4.51-37.24,13.54-9.31,9.03-13.97,21.45-13.97,37.26v37.96c0,15.88,4.66,28.28,13.97,37.22,9.31,8.93,21.76,13.4,37.35,13.4s28.07-4.47,37.45-13.4c9.38-8.93,14.07-21.34,14.07-37.22v-37.96c0-15.82-4.72-28.24-14.17-37.26-9.45-9.02-21.93-13.54-37.45-13.54Zm22.97,88.77c0,9.83-1.96,17.2-5.87,22.11-3.91,4.91-9.58,7.37-17,7.37s-13.16-2.46-17-7.37c-3.85-4.91-5.77-12.29-5.77-22.11v-38.26c0-9.77,1.89-17.11,5.67-22.02,3.78-4.91,9.45-7.37,17-7.37s13.19,2.47,17.1,7.42c3.91,4.95,5.87,12.27,5.87,21.97v38.26Z"/></g></g></g></g></svg>