<?xml version="1.0" encoding="UTF-8"?><svg xmlns="http://www.w3.org/2000/svg" viewBox="0 0 55.75 72.6"><defs><style>.d{fill:none;stroke:#76b224;stroke-miterlimit:10;stroke-width:4px;}</style></defs><g id="a"/><g id="b"><g id="c"><path class="d" d="M27.85,2C13.56,2,2,13.56,2,27.85c0,7.43,3.72,14.17,7.38,20.39,4.47,7.73,9.82,14.93,16.03,21.32,1.34,1.4,3.55,1.4,4.94,0,5.46-5.4,10.28-11.5,14.35-18.01,4.36-7.03,9.06-15.16,9.06-23.7-.06-14.23-11.62-25.85-25.9-25.85h0Zm0,40.83c-8.66,0-15.68-7.03-15.68-15.68s7.03-15.68,15.68-15.68,15.68,6.97,15.68,15.68-7.03,15.68-15.68,15.68h0Z"/></g></g></svg>