<?xml version="1.0" encoding="UTF-8"?><svg xmlns="http://www.w3.org/2000/svg" viewBox="0 0 1618.69 1737.08"><defs><style>.d{letter-spacing:-.02em;}.e{letter-spacing:0em;}.f{letter-spacing:0em;}.g{letter-spacing:0em;}.h{letter-spacing:-.02em;}.i{fill:#484b4a;font-family:RobotoCondensed-Light, Roboto Condensed;}.i,.j{font-size:42.97px;}.k{fill:#e3e8eb;}.l{letter-spacing:-.05em;}.m{letter-spacing:0em;}.n{fill:#4c5962;}.o{fill:#f09605;}.p{fill:#d6dde2;}.j{font-family:RobotoCondensed-Bold, Roboto Condensed;}.j,.q{fill:#76b224;}.r{letter-spacing:0em;}.s{letter-spacing:0em;}.t{fill:#b3b9be;}.u{fill:#6a757d;}.v{fill:#546069;}.w{fill:#bcc7cf;}.x{letter-spacing:0em;}.y{fill:#88959d;}.a`{fill:#eff1f3;}</style></defs><g id="a"/><g id="b"><g id="c"><g><text class="j" transform="translate(174.76 36.76)"><tspan x="0" y="0">212.089</tspan></text><g><path class="a`" d="M807.27,1682.38c.79-1.38,1.59-1.27,2.38,0h-2.38Z"/><path class="p" d="M771.46,1720.14c.52,18.75-14.54,1.66-19.32,8.93,.79,2.34,1.75,5.17,2.7,8h-4.76c-.79-1.27-1.59-1.38-2.38,0h-16.66c-3.67-6.8-7.63-10.88-16.7-13.13-14.24-3.53-26.56-13.08-33.39-27.47,3.31-7.61,3.05-13.49-6.84-15.42-2.58-.5-4.9-2.31-7.35-3.52-2.66-7.26-14.88-2.33-15.56-12.36,4.14-2.86,7.94,2.76,12.91,.26-4.42-4.28-2.2-14.12-13.07-12.53-1.34,.2-5.37-5.84-5.02-8.58,1.05-8.11-6.86-16.36,.56-24.29,1.66-1.77,1.49-6.08-.2-6.5-16.88-4.22-1.55-18.87-8.58-27.44-2.22-2.71-1.29-14.58-.84-22.36,.81-13.95,3.94-24.19,17.97-28.92,2.53,7.06,16.81,5.43,13.43,17.44-4.42,.3-7.98-5.89-11.17-1.96-3.94,4.84,3.26,4.51,4.61,7.07,.27,.52-.82,1.87-1.45,2.72-3.83,5.24-3.28,11.17-2.85,17.15,5.01-3.2,5.28-3.2,5.38,1.25,.06,2.63,2.08,4.67-1.75,8.18-5.19,4.74-10.18,13.08,1.08,19.02,3.76,1.98,5.84,5.72,1.01,9.39-1.59,1.21-3.99,3.12-2.17,4.61,7.17,5.85,2.3,16.64,10.05,22.55,.71-4.75,1.38-9.24,2.08-13.89,5.52,.32,8.65,4.37,12.72,6.55-.01,.69-.03,1.38-.07,2.07-3.11,5.27,5.81,22.41-12.63,12.71-1.86-.98-3.73,1.25-3.75,3.45-.04,4.18-1.97,8.85,2.18,12.2,2.56,2.06,4.28,1.11,4.89-2.03,.71,.75,1.42,1.51,2.13,2.26,.42,5.92,4.03,7.64,9.35,7.11,1.79,2.75,4.61,2.51,7.34,2.55,.03,4.79-.68,9.71,2.42,13.96,3.57,5.19,9.73,8.27,11.88,14.61,.31,.18,.62,.35,.93,.53l-.93-.52c.33-6.94-1.67-14.61,6.31-20.32,2.22,7.99-1.99,18.69,10.34,20.18-3.49,4-8.05,6.1-15.71,6.44q31.94,11.33,32.37-18.32c.01-.79,.08-1.58,.12-2.37,1.43-.04,2.85-.07,4.28-.11,.11,3.52,1.05,7.27,.17,10.52-3.45,12.68,2.92,16.17,13.91,15.88,4.07-.11,7.89,.29,10.03,4.48Zm-117.09-91.87c-2.53-.09-3.8,1.05-3.79,3.34,0,2.13,1.17,3.83,3.16,4.27,2.5,.55,3.23-1.35,3.31-3.43,.08-2.07-.6-3.73-2.68-4.19Zm.45-6.06c.28-.15,.57-.3,.85-.45-.24-.2-.47-.55-.73-.57-.27-.03-.56,.26-.85,.41l.73,.61Z"/><path class="w" d="M1052.31,785.58c10.49-13.49,22.56-9.68,34.67-2.95,10.91,6.06,29.39,3.2,28.27,23.77-.14,2.67,3.27,3.08,4.49,2.2,14.68-10.55,27.9,2.08,41.83,2.39,1.97,.04,4.06,.71,5.9,.28,20.17-4.69,32.88,7.67,46.5,19.22,9.17,7.78,18.68,16.34,32.58,14.21,5.93-.91,9.59,2.09,11.8,7.63,12.47,31.25,4.93,58.48-22.2,78.47-4.98,3.67-8.03,8.52-11.19,13.57-5.1,8.15-5.95,19.31-19.31,21.46-4.53,.73-6.02,10.33-5.88,16.99,.37,17.98,2.58,35.95-2,53.89-1.21,4.72-2.42,8.93-5.22,12.77-14.95,0-29.94,.71-44.83-.22-11.82-.73-15.19,3.96-14.41,14.99,.77,10.96,.18,22.02,.19,33.03-25.05,6.11-32.31,17.01-27.72,41.55-17.6,6.23-33.06,15.52-46.23,29.11-5.24,5.4-7.22,10.72-7.31,17.71-.18,14.06,2.15,28.41-4.3,41.83-.99,.15-1.98,.31-2.97,.46-34.16-.28-68.32-.55-102.48-.83,1.71-7.14,9.3-9.76,12.24-15.95l-.03,.03c3.27-1.38,6.68-2.5,9.78-4.19,11.72-6.4,17.51-23.05,8.05-31.5-9.35-8.34-7.31-15.81-5.23-24.39,1.8-7.42-3.31-9.57-7.46-8.53-10.69,2.68-11.64-2.98-12.7-11.02-.58-4.42-.69-9.54-4.21-13.27-3.9-4.03-8.27-4.75-13.97-4-6.08,.79-16.05,2.35-16.45-5.76-.69-13.84-5.58-27.7,.71-42.1,4.52-10.35,5.97-22.49-6.19-30.73-2.11-1.43-2.93-4.29-2.18-6.46,4.59-13.31-4.89-10.8-11.99-10.84q-17.3-.09-18.91-17.43c-.25-2.76,.59-6.01-.61-8.2-2.26-4.15,.74-11.13-6.54-12.57-.79-.79-1.58-1.58-2.37-2.37-4.79-7.68-12.64-3.32-18.99-4.83-4.68-9.3-14.21-13.62-22.62-13.5-19.59,.28-26.71-14.06-26.6-30.14,.09-13.35-1.87-15.63-14.65-12.84-4.54,.99-8.78,2.87-12.87,5.66-12.83,8.76-26.54,14.81-42.93,13.1-6.37-.66-9.72-1.95-9.13-8.83,.27-3.15,.11-6.34,.08-9.51-.05-4.31-2.62-6.61-5.85-3.59-10.32,9.67-18.33,2.37-27.48-2.11-4.68-2.29-3.27-9.54-9.48-9.46l.04,.04c-.02-3.18-1.6-4.81-4.8-4.8l.05,.06c-.48-10.32-9.1-22.82,7.66-28.61,.61-.21,.94-2.11,.9-3.21-.52-15.85,6.74-23.43,21.5-24.96,23.17-2.41,32.41-13.49,33.16-35.79,.41-12.28,2.93-24.09-5.93-34.74-4.55-5.47-2.47-9.74,4.63-10.57,10.37-1.22,7.42-5.44,2.65-10.35-1.45-1.5-4.73-1.9-3.2-5.5,5.61-1.98,11.56-.35,17.34-1,4.29-.49,9.95,2.23,11.85-4.57,1.31,.72,3.79,1.52,3.75,2.16-.62,9.91,6.67,12.29,13.78,14.77,7.4,2.58,14.1,1.44,20.84-2.91,7.49-4.82,16.62-7.09,21.81-15.36,1.25-1.98,5.97-1.29,5.6-5.01-.37-3.77-3.94-2.93-6.52-3.44-11.03-2.21-7.48-11.14-6.44-17.11,1.26-7.21,7.04-3.39,11.23-1.87,2.17,.79,4.41,2.63,6.65,.95,9.29-6.98,21.71-6.02,31.18-12.44,4.15,0,8.29,0,12.44-.01,7.76,3.98,6.62,9.77,4.22,16.7-4.85,14.02-.95,25.3,9.7,30.63h.01c4.01,7.04,8.03,7.78,12.06,.02v-.03c3.4-.07,6.99,.71,9.73-2.23,2.49-.2,5.15,.14,6.94-2.24,10.33-1.65,21.88,2.59,30.52-7.55,2.7-3.17,7.78-.87,12.08-.4,9.47,1.03,19.14,9.09,28.78,.51l.02,.02c9.32-2.05,7.82-10.28,9.54-16.68h-.02c4.07-1.94,4.96-5.47,4.77-9.53h-.03l2.44-2.44c1.56-1.61,3.11-3.21,4.67-4.82,2.62,4.8,4.21,9.75,5.06,15.33,1.25,8.26,2.96,16.99,11.39,21.76,10.19,5.76,7.9,11.72,.42,17.85-4.03,3.59-8.19,7.05-12.05,10.82-2.41,2.35-3.58,5.78-1.34,8.48,2.84,3.43,5.75,1.1,7.64-1.59,3.14-4.46,7.29-3.96,11.54-2.75,3.06,.88,6,2.37,8.32-1.21,10.5-.43,15.57,3.51,11.76,14.61-7.02,8.1-17.5,8.96-27.01,11.9,5.4,.61,10.38,.12,15.37,.07,6.38-.07,10.48-2.72,11.72-9.19Z"/><path class="w" d="M685.89,1634.88c-4.08-2.18-7.2-6.23-12.72-6.55-.7,4.65-1.37,9.14-2.08,13.89-7.75-5.91-2.88-16.7-10.05-22.55-1.82-1.48,.59-3.4,2.17-4.61,4.83-3.67,2.75-7.41-1.01-9.39-11.26-5.95-6.27-14.28-1.08-19.02,3.83-3.5,1.81-5.55,1.75-8.18-.1-4.46-.37-4.45-5.38-1.25-.43-5.98-.97-11.91,2.85-17.15,.62-.85,1.72-2.2,1.45-2.72-1.35-2.56-8.55-2.23-4.61-7.07,3.19-3.92,6.75,2.27,11.17,1.96,3.38-12.01-10.9-10.38-13.43-17.44,4.69-8.87,7.95-16.79-7.43-17.81-2.22-.15-10.47-4.51-2.04-9.53,2.71-1.62,2.11-2.61,1.08-5.29-2.15-5.64,2.64-4.98,6.05-5.14,3.74,5.11,7.58,10.1,14.65,10.64-.63-6.18,6.62-11.56,1.82-18.15,5.01-27.15,11.57-54.1,12.64-82.93-10.36,4.48-16.69,16.89-13.99,25.59,1.05,3.38,1.04,5.98-.64,8.9-1.63,2.83-3.9,3.78-6.93,2.77-2.88-.96-2.99-3.38-2.63-5.8,.58-3.86,.38-8.24,2.21-11.43,7.27-12.75,1.53-26.95,5.14-40.01,15.85,4.39,24.22-5.73,25.21-15.25,1.11-10.74-6-17.23-20.29-18.91-.15-7.54-.29-15.07-.44-22.61,10.39,1.12,19.89-.32,23.9-11.59,3.6-10.12-1.55-17.13-9.87-22.39,.1-3.61,.19-7.22,.29-10.83,9.38,6.09,19.49,9.91,30.84,9.86-1.68,3.77-3.37,7.54-5.05,11.31-11.45,5.11-4.23,14.88-5.29,22.45-.9,6.42,5.02,14,1.27,19.31-10.35,14.64-12.44,30.77-12.6,47.82-.07,7.83,1.35,15.73-1.35,23.53-2.72,7.84-4.14,15.44,.82,23.68,2.26,3.76,4.49,9.5,2.1,14.78-3.01,6.64-.67,10.71,6.12,11.92-2.18,4.86-10.5,1.75-8.9,6.82,1.29,4.09,7.25,6.7,11.14,9.96-1.92-6.02,2.37-9.42,3.93-13.65,2.67-7.24-5.67-7.29-7.99-11.35-.17-.3-.19-.82-.07-1.15,5.54-14.66-6.78-27.59-2.46-44.03,3.31-12.58,2.9-28.34,4.17-42.65,.72-8.1-.51-17.64,9.31-22.57,3.77-1.89,1.24-5.45,.65-8.47-2.37-11.98-5.32-24-.55-36.11,5.31-2.16,9.52-5.21,9.45-11.72,17.45-4.82,31.12-13.77,37.08-34.19h-27.94c-1.32-15.51,1.69-29.59,8.54-44.06,4.75-10.02,18.6-17.52,12.15-32.06-1.06-2.38-1.79-5.67-1.01-7.96,2.51-7.33-3.37-18.58,6.5-21.85,13.41-4.45,14.71-15.02,16.86-25.67,1.81-8.94,6.58-12.93,15.75-11.45,3.11,.5,6.4,1.18,9.41,.64,9.03-1.62,8.43,9.92,13.3,10.39,6.73,.66,3.34-11.53,11.6-12.67,6.73-.93,11.03,3.66,16.58,5.23,.72,.69,1.44,1.39,2.16,2.09,.77,4.53,3.75,7.39,7.37,9.77,.7,.7,1.39,1.4,2.09,2.11,13.37,14.19,31.98,19.79,48.63,28.15,11.5,5.78,12.15,9.38,5.8,19.72-11.03,17.98-10.18,18.18,9.48,23.46,15.12,4.05,28.18,2.43,39.78-9.26,6-6.05,11.24-12.12,12.84-21.77,8.5,13.34,7.06,20.8-4.33,27.46-3.44,2.01-7.31,3.39-7.14,8.37l.03-.03c-10.4,1.06-15.68,7.95-19.21,16.84-14.22-.06-28.44-.15-42.66-.16q-29.03-.03-26.17,29.27c.06,.66,.75,1.25,1.3,2.13,2.37-5.49,1.34-11.1,1.06-16.45-.39-7.54,1.93-10.68,9.96-10.34,15.77,.66,31.58,.5,47.37,.69-.06,2.98-.12,5.96-.19,8.94l-.05,.06c-10.69,1.97-14.21,10.09-16.51,19.25-.2,.67-.26,1.36-.18,2.06-6.25-3.55-12.58-2.93-18.95-.37-6.39-4.86-8.36,.24-9.08,4.77-1.94,12.29,5.23,18.66,15.87,22.31,.16,18.86,.33,37.73,.49,56.59l-.74,.33c-16.7,4.07-33.17,9.52-50.84,6.25-8.35-1.54-5.66,4.09-3.93,7.71,5.48,11.47-1.73,21.64-4.45,31.53-2.16,7.83-13.11,6.67-20.99,6.77-.09-.92-.18-1.85-.27-2.77v-138c-1.26-.18-5.02-.74-10.61,1.33,5.33,1.64,6.07,4.94,6.04,8.89-.33,41.2-.55,82.4-.81,123.59-13.99-.59-14.2-.55-11.69,12.92,1.06,5.66-4.65,13.85,5.95,16.47,2.13,.53,.63,3.63-.84,4.89-6.89,5.91-.83,7.35,4.65,9.87-11.7,5.76-14.37,14.66-14.47,26.41-.06,7.08-2.82,15.48-13.52,17.89-7.98,1.8-15.39,6.31-18.86,15.99-4.15,11.56,1.56,25.22,13.93,28.41,12.8,3.3,15.78,13.41,6.57,23.83-2.48,2.81-5.4,5.44-8.71,7.75-8.08,5.64-15.15,12.52-14.78,23.88,.19,5.77-1.25,11.79-7.62,13.33-11.83,2.87-15.73,10.93-15.97,21.8-.17,7.62,1.88,15.01,4.72,21.9,4,9.72-1.15,8.33-7.13,6.7-2.39-.06-4.79-.11-7.18-.17l.06,.03c-1.7-.81-3.32-2.08-5.1-2.35-8.75-1.33-18.82,3.43-26.18-2.67-7.84-6.5-3.67-16.93-4.53-25.68-.33-3.35-1.45-6.19-5.11-6.98-3.48-.75-6.28-.03-6.87,4.17-8.31-8.12-8.68-23.18,.28-34.16,5.03-6.16,7.73-12.45,7.23-20.25,1.57-7.94,3.13-15.87,4.7-23.81,.79-.78,1.58-1.55,2.38-2.33,3.76-3.31,1.61-7.88,2.53-11.8,6.66-8.7,3.62-17.64,1.61-27.65-5.34,9.61-2.24,18.48-2.11,27.22-6.38,2.89-2.7,7.74-2.32,11.94-.78,.79-1.56,1.58-2.34,2.37-10.55,6.09-7.1,15.04-4.85,23.74-7.89,1.81-3.03,10.18-7.66,14.38-10.76,9.76-9.57,23.22-8.51,36.09,.45,5.5,3.3,8.99,9.32,4.58,6.05-.17,9.81,1.03,7.77,8.75-1.25,4.74-.5,10.01-.65,15.04Zm-22.92-122.13c-.11,.32-.23,.63-.34,.95,.28,.1,.72,.35,.79,.27,.21-.24,.26-.6,.37-.92-.28-.1-.55-.2-.83-.29Z"/><path class="w" d="M700.15,1037.47c-1.66,.61-3.31,1.22-4.97,1.84-.59-1.29-1.19-2.59-1.79-3.89-4.99-8.62-14.33-10.91-22.41-14.49-14.22-6.3-26.57-15.13-37.47-25.87-4.12-4.06-9.14-8.91-5.65-16.58,1.8-3.95-1.57-6.46-5.05-8.04,8.83-6.81,12.17-15.65,6.75-25.6-5.51-10.11-14.73-11.79-25.13-7.36-9.16-20.28-16.49-41.48-29.85-59.65-2.32-3.16-4.49-7.66-7.68-8.73-13.69-4.62-13.02-17.27-16.16-27.51-2.31-7.52-.34-14.18,8.95-15.95-2.43,11.23,7.07,9.56,12.92,12.72,14.15,7.64,18.98,5.56,20.47-10.35,.07-.64,.09-1.29,.05-1.93,3.48-2.51,6.59-5.3,7.41-9.82,.7-.69,1.4-1.39,2.1-2.08,10.67-2.73,22.13-3.89,28.74-14.6,1.52-1.52,3.03-3.04,4.55-4.56,6.17-6.5,8.04-14.46,6.41-26.03,12.03,10.53,21.78,19.26,28.34,30.42,3.12,5.31,6.23,6.84,11.72,7.69,8.96,1.38,17.63-2.72,26.51-.54,4.15,1.02,9.24,.94,9.66,6.66,.47,6.41-12.62,20.62-19.59,22.01-14.21,2.83-23.71,10.96-27.39,25.15-.7,2.69-.99,5.08-3.15,7.29-10.82,11.06-10.55,17.61,.77,29.46l-.05-.06c.19,3.01,1.71,4.7,4.8,4.8l-.04-.04c.59,15.91,16.59,24,36.99,18.66,2.07,3.67,.84,7.7,1.13,11.54,.3,3.94,1.91,8.26,5.8,7.41,11.34-2.5,14.36,7.02,20.24,12.51,.78,.79,1.56,1.59,2.34,2.38,.6,11.92-7.24,23.27-2.35,35.47-1.78,1.05-2.37,2.73-2.46,4.67-5.64,1.05-3.73,5.61-4.57,9.16-2.39,10.01,6.71,18.97,2.32,29.02-2.96,.04-4.52,1.5-4.56,4.5-9.54,.12-19.08,.23-28.62,.35Z"/><path class="p" d="M680.79,597.28c6.48,.38,12.56-6.96,20.11,.62,1.89,1.9,12.32-4.52,18.72-7.35,13.24-5.84,22.84-3.11,30.22,9.7,2.41,4.18,5.02,4.14,8.75,3.37,10.01-2.06,19.2-3.69,28.79,4,6.01,4.82,15.28,1.54,22.79-1.4,10.11-3.95,19.89-8.29,28.39,3.61,1.86,2.6,7.19,2.68,10.89,4.02,6.08,2.21,13.89,2.78,11.25,12.87-.96,3.66,2.56,4.9,5.04,5.41,22.02,4.56,33.82,22.99,49.28,36.32,7.49,6.46,3.77,13.54-1.71,19.45-2.03,2.19-5.91,2.62-6.11,6.57-9.56,.02-19.12,.04-28.69,.05,1.53-8.45-3.79-10.02-10.23-9.61-7.24,.46-2.71,6.34-3.93,9.61-34.93-.02-69.87-.03-104.8-.05,1-5.39,.59-11.65,3.28-16,6.04-9.79-.16-10.1-6.68-9.74-11.53,.64-22.5-.34-32.25-7.26-.86-5.57-5.21-4.73-8.95-4.74-7.7,0-15.4,.14-23.1,.22-2.97-.45-4.82-2.34-6.2-4.84,2.62-6.07,6.41-12.29-2.3-16.81l.07,.08c-.05-2.68,.32-5.49-2.47-7.24l.07,.12c.14-3.76-2.14-5.96-5-7.78-.05-.48-.01-.96,.11-1.43,3.09-5.45,5.02-11.06,2.4-17.3,.75-1.49,1.5-2.99,2.25-4.48Zm16.98,7.86c-3.16,2.86-7.46,5.64-5.96,10.29,1.42,4.41,2.43,10.79,9.51,10.02,4.91-.54,6.55-4.3,5.5-8.66-1.2-4.95-3.26-9.65-9.05-11.66Zm158.13,71.89c7.66-1.64,3.96-9.86,9.13-12.86,10.18-5.89,9.99-6.21-.45-16.82,1.97,6.64,4.48,11.58-3.99,14.41-5.14,1.72-5.32,9.18-4.7,15.27Z"/><path class="w" d="M181.89,429.26c-9.02-12.04-12.69-27.64-24.88-37.55-12.55-10.19-19.57-26.36-35.51-32.89-2.82-1.15-5.2-3.48-4.29-6.28,4.35-13.38-5.94-15.49-14.25-19.24-.09-.92-.17-1.84-.26-2.76-.1-23.67-.21-47.35-.31-71.02l.84-.39c7.5,.08,15,.23,22.49,.21,4.21-.01,7.57-.27,11.22-4.28,5.88-6.45,16.75-5.32,21.91-1.97,10.76,6.98,23.05,13.73,27.68,27.58,3.26,9.72,9.57,16.18,20.58,16.51,.29,.95,.58,1.89,.86,2.84l-.75,111.25c-11.97,1.03-19.14,8.84-25.34,18Z"/><path class="w" d="M378.81,537.64c-11.24-7.57-17.91-21.11-32.79-24.13-4.96-1-8.79-1.81-13.03,1.69-14.39,11.88-42.73,1.77-52-8.65,5.53-3.56,11.78-5.65,17.1-9.84,15.08-11.87,14.95-28.18,14.33-44.83,6.43,3.66,4.45,12.03,10.08,16.8,10.61,9,35.33,13.72,49.47,7.54,2.93-1.28,5.58-2.57,8.88-2.79,4.5-.3,10.06,6.02,12.96,.55,4.58-8.64,14.63-14.56,13.56-26.12-1.09-11.81,5.95-15.39,16.19-17.61,11.16-2.42,21.97-4.56,33.57-3.3,6.6,.72,8.45,5.6,5.89,8.16-12.22,12.24-8.92,29.36-15.12,43.32-2.36-4.98-6.31-8.03-10.18-2.69-7.2,9.96-17.13,10.16-27.49,9.56-6.88-.4-10.74,1.07-14.37,8.33-3.92,7.84,2.42,8.58,4.73,12.2,1.22,1.91,3.96,3.28,3.09,5.91-.97,2.93-3.96,1.71-6.15,2.11-4.21,.77-10.03-2.37-11.64,4.76h.01c-7.27,4.51-7.03,11.83-7.1,19.02Z"/><path class="w" d="M210.12,299.78c2.58,.14,4.52-1.08,6.23-2.85,12.12-12.62,22.24-13.23,30.58,1.28,7.16,12.46,17.51,23.01,22.18,36.9,.14,.98,.28,1.97,.42,2.95-.12,27.61-.24,55.22-.36,82.83-8.35,2.03-16.82,4.04-23.63,9.59-4.63,3.78-6.34,1.73-8.39-2.53-5.45-11.32-15.02-16.29-27.24-16.81-.28-37.09-.56-74.19-.84-111.28l1.05-.06Z"/><path class="w" d="M31.38,321.25c13.59-3.05,17.49-12.52,6.55-20.02-20.81-14.27-26.09-37.23-36.83-57.24-2.56-4.77-.44-5.24,3.82-6.75,16.75-5.93,30.62,2.65,45.43,7.52,15.64,5.14,30.23,13.86,47.28,14.37l.85,.4-.77,59.52c-14.2,.64-16.06-18.06-29.4-18.76,4.27-12.92-6.89-21.91-8.51-33.36-1.11-7.87-17.32-17.07-24.85-14.5-2.14,.73-3.54,2.34-3.24,4.39,1.32,9.29,1.3,20.41,7.43,26.75,21.23,21.93,36.34,47.57,49.94,74.41,1.76,3.48,3.18,7.37,7.24,9.07-4.67,2.89-8.95,6.17-11.29,11.37-8.08-2.75-12.09-7.83-10.87-16.86,1.98-14.65-10.63-18.43-19.74-23.03-8.97-4.53-17.14-9.13-22.96-17.38l-.1,.1Z"/><path class="w" d="M714.15,1148.07c6.22-30.24,11.81-60.5,2.84-91.22,3.82-.42,7.59-.92,9.33-5.12l-.07,.07c2.89-.62,1.24-6.06,4.91-5.15,2.65,.65,3.93,3.44,4.45,6.29,1.07,5.8-.2,12.71,7.2,15.59,.84,9.52-5.46,19.75,1.98,28.49,3.89,4.57,4.24,9.74,5.89,14.9,1.91,5.97-1.18,14.12,6.56,17.93,3.06,1.5,9.37-1.6,8.74,4.93-.52,5.34-2.35,10.26-8.24,13.35-14.38,7.53-16.04,12.81-14.15,28.74,.93,7.84,.66,15.32-3.64,23.68-6.86,13.33-16.24,26.53-15.97,42.6,.11,6.59-1.1,12.29-4.74,17.6-1.55,.08-3.11,.17-4.66,.25-.14-37.64-.28-75.29-.43-112.93Z"/><path class="p" d="M602.62,814.17c-.7,.69-1.4,1.39-2.1,2.08-6.63,.14-7.8,4.4-7.4,9.82,.03,.65,.02,1.29-.05,1.93-11.68,11.72-12.11,11.72-26.26,.04,.28-2.73-.35-6.09,1.01-8.09,5.3-7.79,5.37-12.6-5.4-14.59-4.64-.86-8.56-19.61-5.17-24.41,5.36-7.6,11.25-14.59,12.64-24.45,.99-7.06,11.85-4.18,13.56-11.45,1.63,.03,3.27,.06,4.9,.09,.1,3.02,1.85,4.27,4.68,4.38,4.13,5.67,10.71,7.04,16.66,9.52,.54,4.93,4.35,6.32,8.24,6.86,21.45,2.98,21.58,3.07,18.01,24.42-.25,1.52-.03,3.12-.02,4.68-1.52,1.52-3.03,3.04-4.55,4.56-10.32,3.42-20.53,7.03-28.73,14.6Z"/><path class="w" d="M680.79,597.28c-.75,1.49-1.5,2.99-2.24,4.48-4.19,5.3-1.64,11.53-2.4,17.3-.13,.47-.16,.95-.11,1.44-7.74,8.64,4.52,4.43,5,7.78l-.07-.12c.05,2.68-.13,5.43,2.47,7.24l-.07-.08c3.78,5.31-1.15,10.72,.19,16.06-15.34-6-30.65-8.88-45.84,.46-10.04,1.27-16.31,6.86-19.05,16.54-3.83,2.53-2.93,9.17-8.71,9.99-.61-6.18,.51-12.53-3.95-18.14-2.5-3.14-.28-5.99,2.45-9.1,9.03-10.27,14.09-23.76,26.07-31.82,1.56-1.05,.88-5.18,1.58-7.79,2.3-8.62,5.53-13.87,16.5-16.34,12.94-2.91,28.32-3.81,37.65-16.4,2-2.7,4.7-4.28,7.88-4.85,2.6-.46,4.88,.76,5.68,3.24,.75,2.33-1.22,3.8-3.14,4.21-9.3,2.03-13.59,10.19-19.87,15.9Z"/><path class="w" d="M1038.33,1233.15c-3.23,7.93-9.75,14.16-11.26,23.1-.8,4.74-5.35,4.96-9.51,4.93-11.04-.09-22.17,.86-33.08-.29-9.47-1-12.41,6.67-18.16,10.65,.96,1.14,1.92,2.28,2.88,3.42-4.86,.23-9.72,.46-14.58,.68-3.37-6.16-1.92-17.08-14.23-14.4-1.59-.12-3.18-.25-4.77-.37-3.57-6.03-11.63-9.79-9.48-18.71l.05-.06c4.04-2.01,6.89-4.92,7.26-9.69,34.96,.25,69.92,.5,104.88,.75Z"/><path class="w" d="M697.76,1689.17c-3.1-4.26-2.4-9.17-2.42-13.96,3.82-2.76,8.53-4.9,8.74-12.7-6.38,4.03-11.23,7.09-16.07,10.15-5.32,.53-8.93-1.19-9.35-7.11,7.71,.38,12.48-7.33,20.08-7.66-7.51,1.6-17.78-9.45-22.21,5.39-.61,3.14-2.34,4.09-4.89,2.03-4.15-3.35-2.22-8.02-2.18-12.2,.02-2.2,1.88-4.43,3.75-3.45,18.44,9.7,9.52-7.44,12.63-12.71,4.91,6.54,11.46,8.26,19.41,7.55,6.98-.63,14.05-.18,21.09-.2l-.06-.03c.99,1.93,2.74,2.37,4.7,2.43,.68,5.81,.21,12.1,9.4,11.53,4.08-.25,2.46,4.14,2.53,6.49,.25,8.22,.15,16.45,.19,24.68-.04,.79-.11,1.58-.12,2.37q-.43,29.65-32.37,18.32c7.65-.34,12.22-2.44,15.71-6.44,1.18,.02,2.47,.34,3.53,0,2.81-.93,1.37-2.02-.12-2.86-9.45-5.38-13.86-10.81-.37-16.73,1.79-.79,3.64-2.11,2.75-4.5-.85-2.3-3.19-1.75-5.07-2.07-3.52-.61-9.2,2.2-9.61-3.7-.3-4.22,.55-9.59,6.6-10.99,2.48-.58,4.78-2.16,3.28-4.96-1.33-2.48-4.17-1.63-6.42-.97-11.75,3.5-13.22,13.33-13.38,23.23-.11,7.15-2.24,10.57-9.72,9.1Z"/><path class="p" d="M502.56,418.74c-.7-9.34,6.34-12.99,13.04-14.46,20.46-4.49,39.64-7.03,60.82,4.25,16.52,8.8,33.87,17.73,51.95,24.27,9.57,3.46,18.42,8.92,30.03,14.68-18.51,8.6-35.84,.89-53.19,7.19,7.75-9.2,10.43-15.4-3.96-14.81-1.39,.06-3.39-.81-4.16-1.91-12.45-17.74-33.09-16.05-50.68-21.57-3.23-1.01-9.92,1.04-5.04-6.65,1.42-2.25-2.01-2.6-3.82-2.75-5.2-.43-10.78-.58-14.67,3.16-5.8,5.57-13.07,6.82-20.25,8.67l-.06-.06Z"/><path class="w" d="M1188.28,1054.84c4.49,15.99-5.72,27.17-13.14,39.11-2.73,4.39-6.17,8.29-6.23,13.72-.05,4.53-1.68,7.62-6.38,8.57-5.33-9.59-12.37-16.88-24.08-17.86-.13-11.82,0-23.64-.5-35.44-.29-6.82,2.47-8.95,8.99-8.72,13.77,.49,27.56,.45,41.34,.63Z"/><path class="p" d="M514.71,550.21c-.18,13.36-1.11,26.62-4.98,39.51-14.16,.88-23.21,8.14-27.14,21.77-.25,.22-.73,.48-.7,.64,.11,.54,.4,1.03,.63,1.55,.22,.88,.45,1.75,.67,2.62h-29.69c5.31-3.64,9.74-1.1,13.06-2.89,4.08-2.19,10.68,.37,12.23-6.91,1.41-6.65,.78-12.3-4.31-17.22-5.06-4.89-9.8-10.1-14.84-15-2.63-2.56-4.99-5.06-4.34-9.09,10.78-.08,18.27-4.77,21.52-15.39,12.63,.14,25.26,.27,37.89,.41Z"/><path class="p" d="M414.57,549.62c-11.13-.55-23.58,3.25-31.01-9.46-1.02-7.37,1.88-14.32,2.35-21.53h-.01c3.94,.01,7.91,.34,11.82-.02,4-.36,9.34,2.21,11.48-3.24,1.98-5.04-.31-9.4-4.72-12.18-5.61-3.54-3.36-8.59-.53-10.88,5.53-4.48,12.98-2.92,19.18-1.3,5.42,1.42,3.48,7.33,2.7,11.28-1.52,7.69-5.14,15.25,5.59,19.82,3.63,1.55-.89,5.62-.15,8.58l.02-.05c-8.56,3.69-11.73,12.12-16.72,18.96h0Z"/><path class="w" d="M287.82,425.56c-4.5-1.51-9-3.02-13.5-4.53,.07-24.63,.13-49.27,.2-73.9,3.32,1,6.72,1.81,9.95,3.05q16.7,6.43,13.69,22.83c-7.25-.68-10.43,1.76-10.1,9.87,.58,14.2-.09,28.46-.24,42.69Z"/><path class="w" d="M443.26,521.25c22.3-.84,45.08-10.31,66.56,3.63,2.12,1.37,6.33,1.74,5.03,5.21-.77,2.05-4.06,3.57-6.54,4.43-2.52,.88-5.51,1.24-8.15,.84-7.72-1.14-11.94,2.4-14.03,9.39-2.59,.53-5.18,1.05-7.76,1.58-4.25-9.69-8.82-19.04-21.83-18.03-11.62,.9-15.88,8.99-18.11,18.94-2.38-.82-4.75-1.64-7.13-2.46h-.03c-2.87-4.72-2.95-9.42,.02-14.13l-.02,.04c5.86-.79,8.85-5.23,12-9.45Z"/><path class="p" d="M918.94,694.31c6.21-20.93,6.2-20.36,28.67-20.1,8.66,.1,16.6-.69,22.22,7.32,12.11-5.89,18.38,4.33,26.38,9.66,.81,.54,.97,2.07,1.43,3.13-26.24,0-52.47,0-78.71-.01Z"/><path class="p" d="M528.82,623.38c14.29,9.03,27.69,5.87,41.73-1.61,15.46-8.23,34.34,1.35,37.87,17.68,.9,4.17,1.11,6.82-3.51,8.24-2.37,.73-3.71,5.06-6.96,2.5-2.9-2.29-4.01-5.23-3.02-9.41,2.18-9.2-7.15-9.55-11.62-13.32-4.09-3.45-8.98-.95-10.94,3.16-2.62,5.48-14.11,7.51-6.5,17.84,1.7,2.31-5.3,7.6-10.26,3.83-7.7-5.85-14.3-12.98-24.62-14.8-6.86-1.21,.99-9.06-4.19-11.68,.67-.81,1.35-1.63,2.02-2.45Z"/><path class="t" d="M659.03,1313.73c-62.95-.06-125.91,.03-188.86-.35-8.53-.05-10.89,2.86-10.59,10.95,.54,14.11,.15,28.26,.15,42.99-6.69-1.9-4.49-6.22-4.56-9.16-.29-11.87,.58-23.81-.32-35.62-.88-11.49,4-13.94,14.5-13.87,58.6,.4,117.2,.2,175.8,.18,4.75,0,9.5-.16,14.25-.24-.12,1.7-.24,3.41-.37,5.11Z"/><path class="w" d="M921.65,1289.53c-4.63,5.75-4.23,10.87,2.66,14.11,3.61,1.7,5.46,4.85,3.9,7.31-7.79,12.28-10.19,29.08-27.3,33.85-.16-18.13-.32-36.27-.48-54.4,3.52-1.44,7.84-2.04,10.39-4.49,6.62-6.35,8.77-2.18,10.82,3.62Z"/><path class="p" d="M1009.49,699.5c-1.56,1.61-3.11,3.21-4.67,4.82-.82,.81-1.63,1.63-2.44,2.44h.03c-4.44,1.75-5.11,5.38-4.77,9.53h.02c-7.45,3.12-7.1,10.7-9.54,16.68l-.02-.02c-7.5-.24-13.81-7.31-23.07-1.92,2.25-6.45,3.74-10.87,5.34-15.24,1.37-3.74,.55-6.16-3.71-6.75-.82-3.84-1.64-7.69-2.46-11.54h45.31c0,.66,0,1.33-.03,2Z"/><path class="p" d="M697.76,469.56c4.44-3.74-4.77-12.57,4.07-14.53,8.31-1.85,17.32-1.71,23.54,6.47,3.83,5.03,9.4,6.55,15.34,7.83,3.33,.72,6.98,3.3,5.81,7.54-1.15,4.18-4.65,2.47-7.85,2.01-12.4-1.79-24.67-2.62-35.24,6.49-3.95,3.4-5.52,.58-5.65-3.35-.13-3.93-.03-7.87-.03-12.46Z"/><path class="w" d="M771.46,1720.14c-2.14-4.19-5.96-4.59-10.03-4.48-10.99,.29-17.36-3.2-13.91-15.88,.88-3.25-.06-7-.17-10.52,.76-4.1-1.14-8.58,1.87-12.72,10.96,18.28,27.18,29.32,47.58,36.62-7.15,7.26-16.04,7.76-25.35,6.97Z"/><path class="y" d="M1038.33,1233.15c-34.96-.25-69.92-.5-104.88-.75-2.36,.25-4.71,.5-7.07,.74-15.79-.18-31.6-.02-47.37-.69-8.03-.34-10.35,2.8-9.96,10.34,.28,5.35,1.31,10.96-1.06,16.45-.55-.88-1.24-1.47-1.3-2.13q-2.86-29.28,26.17-29.27c14.22,.01,28.44,.11,42.66,.16,2.33-.3,4.65-.59,6.97-.89,34.16,.28,68.32,.55,102.48,.83-.05,1.35-.11,2.7-.17,4.04-2.16,.39-4.33,.77-6.49,1.16Z"/><path class="t" d="M562.28,1370.83v174.49c-6.05-2.53-5.04-6.15-5.04-9.34-.07-52.23-.09-104.47,.02-156.7,0-3.68-1.69-8.07,2.65-10.8,.79,.78,1.58,1.57,2.37,2.35Z"/><path class="t" d="M900.27,1347.08c.05,24.18,.71,48.38-.1,72.53-.39,11.54,2.04,15.8,14.75,15.38,31.68-1.05,63.41-.38,95.13-.3,4.08,.01,8.45-.98,12.47,1.5-1.87,4.79-5.54,3.31-8.3,3.32-35.28,.11-70.56-.21-105.84,.27-9.29,.13-11.25-3.33-11.14-11.84,.35-26.94-.08-53.9-.21-80.85l.74-.33c.83,.11,1.66,.22,2.5,.32Z"/><path class="u" d="M714.15,1148.07c.14,37.64,.28,75.29,.43,112.93-.94-.01-1.87-.02-2.81-.03-.04-17.51,1.21-35.04-.69-52.52,.35-15.83,.12-31.7,1.27-47.48,.73-10.06-3.43-11.56-12.22-11.51-64.16,.32-128.32,.17-192.48,.17-4.28,0-8.55,0-13.92,0,2.85-3.68,5.59-2.65,7.89-2.65,67.72-.06,135.45-.07,203.17,0,3.12,0,6.24,.72,9.36,1.1Z"/><path class="u" d="M1009.52,697.49c-15.1,0-30.21,0-45.31,0-.77-.34-1.54-.35-2.32-.04-16.68,.02-33.37,.04-50.05,.06-2.35,.05-4.7,.1-7.04,.15-7.17-.06-14.33-.12-21.5-.18-3.08,.02-6.15,.03-9.23,.05-4.15,0-8.29,0-12.44,.01-7.82,.04-15.65,.09-23.47,.13-7.96,0-15.92,0-23.88,0-4.73,0-9.45,0-14.18,0-13.52-.02-27.04-.04-40.56-.06-1.54-.07-3.08-.14-4.61-.21-15.1,.05-30.2,.11-45.3,.16-2.08-1.02-2.21-2.05-.03-3.1,15.1,.05,30.2,.11,45.31,.16,1.55-.05,3.1-.1,4.65-.15,34.93,.02,69.87,.03,104.8,.05,4.72,0,9.44,0,14.16,0,9.56-.02,19.12-.04,28.69-.05,3.91-.05,7.83-.11,11.74-.16,26.24,0,52.47,0,78.71,.01,11.06,0,22.12,0,33.18,0,.02,.74,.03,1.48,.05,2.23l-21.35,.94Z"/><path class="k" d="M443.26,521.25c-3.15,4.23-6.14,8.67-12,9.45-.74-2.96,3.78-7.04,.15-8.58-10.73-4.58-7.11-12.13-5.59-19.82,.78-3.95,2.72-9.86-2.7-11.28-6.19-1.62-13.64-3.18-19.18,1.3-2.83,2.29-5.08,7.33,.53,10.88,4.41,2.78,6.7,7.15,4.72,12.18-2.14,5.45-7.48,2.88-11.48,3.24-3.91,.36-7.88,.03-11.82,0,1.61-7.13,7.43-3.99,11.64-4.76,2.19-.4,5.19,.81,6.15-2.11,.87-2.63-1.86-4-3.09-5.91-2.31-3.62-8.66-4.36-4.73-12.2,3.63-7.26,7.49-8.73,14.37-8.33,10.36,.6,20.29,.4,27.49-9.56,3.86-5.34,7.82-2.3,10.18,2.69,0,3.37-.15,6.62-4.64,7.01-.76-2.17,.94-6.92-3.5-5.54-11.13,3.47-15.13,27.62-6.33,36.15,2.38,3.43,6.87,2.86,9.83,5.19Z"/><path class="w" d="M611.52,711.55c5.1,11.82,11.95,22.21,23.49,28.79-16.36,3.94-32.91,1.37-49.38,1.33,3.97-14.05,20.11-17.63,25.89-30.12Z"/><path class="t" d="M816.56,1396.59c.09,.92,.18,1.84,.27,2.77,.35,7.75-1.86,15.87,3.68,22.87,.85,1.07,1.07,3.18,.7,4.58-9.91,37.29-1.65,75.32-4.65,112.87-1.34,.07-2.68,.14-4.02,.21-1.09-47.77-1.03-95.54-.21-143.31,1.41,0,2.82,0,4.23,.01Z"/><path class="y" d="M816.56,1396.59c-1.41,0-2.82,0-4.23-.01-.38-1.39-.76-2.79-1.14-4.18,.25-41.2,.47-82.4,.8-123.59,.03-3.95-.71-7.25-6.04-8.89,5.58-2.07,9.35-1.51,10.61-1.33v138Z"/><path class="u" d="M287.82,425.56c.15-14.23,.82-28.49,.24-42.69-.33-8.11,2.86-10.54,10.1-9.87,69.58,0,139.16,0,208.73,0l.1,2.96c-3.89,0-7.78,0-11.66,0-63.33,0-126.67,.29-190-.27-11.58-.1-15.24,3.23-14.25,14.62,1.06,12.18,.43,24.52,.54,36.78-1.7,.56-2.85-.25-3.81-1.53Z"/><path class="t" d="M476.82,549.8c.5-1.15,1.01-2.3,1.53-3.46,2.6-.54,5.19-1.06,7.78-1.59,39.14,0,78.28,0,117.42,0v5.45c-29.61,0-59.22,0-88.84,0-12.63-.13-25.26-.27-37.89-.41Z"/><path class="p" d="M669.06,1489.53c4.79,6.59-2.46,11.98-1.82,18.15-7.07-.54-10.91-5.53-14.65-10.64-.84-1.59-2.58-4.47-2.39-4.6,7.03-4.89,5.46-11.96,3.74-18.13-1.51-5.42,1.65-8.08,4.07-11.36,1.65-2.24,4.15-2.01,6.18-.29,3.51,2.97,2.51,7.11,2.49,10.95-.04,5.43-6.9,11.88,2.39,15.92Z"/><path class="y" d="M1138.45,1098.38c-1.65-.36-3.29-.72-4.94-1.08,0-11.01,.59-22.07-.19-33.03-.78-11.03,2.59-15.72,14.41-14.99,14.89,.93,29.88,.22,44.83,.22,9.33,2.87,19.21,.69,28.7,2.12l-.05,3.22c-10.98,0-21.95,0-32.93,0-13.78-.18-27.57-.14-41.34-.63-6.52-.23-9.28,1.9-8.99,8.72,.5,11.8,.37,23.63,.5,35.44Z"/><path class="u" d="M585.63,741.68c16.47,.04,33.02,2.61,49.38-1.33,.61-.23,1.25-.33,1.9-.28l.08,.03c.45,.77,.89,1.55,1.34,2.32-3.07,3.59-7.26,2.31-11.06,2.44-10.6,.35-21.21,.53-31.81,.78-.82-.14-1.58,.02-2.27,.47-1.61-.32-3.22-.64-4.84-.96-1.63-.03-3.27-.06-4.9-.09-55.02,0-110.04,0-168.06,0,7.05-3.73,11.45-2.62,15.67-2.64,51.53-.31,103.05-.51,154.58-.74Z"/><path class="w" d="M711.08,1208.44c1.89,17.49,.65,35.01,.69,52.52-3.54,.13-7.08,.26-10.62,.38-1.2-.22-2.41-.43-3.61-.65,4.38-7.79,4.3-15.69,3.98-24.69-.33-9.14,.66-20.42,9.57-27.57Z"/><path class="p" d="M670.81,455.66c9.05-8.14,16.74-2.47,21.96,2.03,6.86,5.9-2.67,13.67-1.13,20.93,.08,.37-.97,1.1-1.6,1.49-4.6,2.83-29.74-.5-34.39-5.04,5.81-2.54,10.82,1.41,16.04,1.11,4.45-.26,11.45,3.42,12.28-2.06,.67-4.44-1.38-11.46-6.47-15.23-1.81-1.34-4.12-2.01-6.69-3.22Z"/><path class="y" d="M207.98,300.01c-.29-.95-.58-1.89-.86-2.84,0-64.31,0-128.62,0-192.92,1,0,2,0,3.01,0,0,65.18,0,130.35,0,195.53l-1.05,.06-1.09,.17Z"/><path class="y" d="M274.52,347.13c-.07,24.63-.14,49.27-.2,73.9-1.72-.05-3.43-.1-5.15-.15,.12-27.61,.24-55.22,.35-82.83,1.23,.09,2.45,.18,3.68,.28,.44,2.93,.88,5.87,1.32,8.8Z"/><path class="w" d="M433.43,516.06c-8.8-8.53-4.8-32.68,6.33-36.15,4.43-1.38,2.74,3.37,3.5,5.54-4.28,9.88,.76,22.76-9.83,30.61Z"/><path class="w" d="M883.38,1639.9c3.33-2.23,5.61-5.07,7.5-8.79,3.03-5.98,15.12-7.07,19.27-2.06,2.35,2.84,2.28,6.48-1.63,7.62-7.06,2.06-12.75,5.97-18.62,10.19-4.01,2.88-7.46,.89-6.63-4.92,.11-.68,.14-1.37,.11-2.05Z"/><path class="t" d="M273.2,338.33c-1.23-.09-2.45-.19-3.68-.28-.14-.98-.27-1.96-.42-2.95,.1-19.52,.15-39.03,.36-58.54,.05-4.2-1.09-8.62,1.48-12.56,1.17,.13,2.33,.26,3.5,.38-.41,24.65-.83,49.29-1.24,73.94Z"/><path class="w" d="M204.96,471.34c7.92,.43,15.16-2.61,22.61-5.01,2.06,6.73,3.97,12.99,5.89,19.25-7.67,.42-14.59-2.44-21.7-4.7-4.95-1.58-7.08-4.54-6.79-9.54Z"/><path class="p" d="M1040.47,768.2c-2.32,3.58-5.26,2.09-8.32,1.21-4.25-1.22-8.4-1.71-11.54,2.75-1.89,2.69-4.8,5.02-7.64,1.59-2.24-2.71-1.07-6.14,1.34-8.48,3.86-3.77,8.02-7.23,12.05-10.82,2.79,6.55,13,5.49,14.11,13.76Z"/><path class="p" d="M883.38,1639.9c.03,.69,0,1.37-.11,2.05-4.02-.25-7.38,.68-10.83,3.27-3.74,2.81-8.2,2.61-11-2.21-.57-.97-.72-2.18-1.07-3.29,11.82,3.63,11.58-18.58,25.84-10.71-.21,3.23-3.92,6.67-2.83,10.89Z"/><path class="k" d="M566.81,828.05c14.15,11.68,14.58,11.68,26.26-.04-1.48,15.91-6.31,17.99-20.47,10.35-5.85-3.16-15.35-1.49-12.92-12.72l-.02,.03,2.78,.05c1.46,.78,2.91,1.56,4.37,2.34Z"/><path class="p" d="M438.13,549.62c-.45,5.83,6.26,7.1,7.53,11.83-11.46-1.06-23.12-1.6-31.09-11.83h0c6.41,1.3,10.33-6,16.7-4.84h.03c.08,4.72,3.35,4.92,6.83,4.84Z"/><path class="t" d="M693.4,1035.42c.6,1.3,1.19,2.6,1.79,3.89-18.2-.34-36.5,2.84-54.6-1.38-.07-.8-.14-1.6-.21-2.4l53.03-.11Z"/><path class="t" d="M1044.82,1232c.06-1.35,.11-2.7,.17-4.04,.99-.15,1.98-.3,2.97-.46,16.03,0,32.05,0,48.07,0l.11,4.5h-51.32Z"/><path class="w" d="M716.7,1051.93c-6.18-2.2-11.35-5.64-14.36-11.72,8.02,.01,16.04,.03,24.06,.04-.05,3.85-.1,7.69-.15,11.54l.07-.07c-3.21,.07-6.41,.14-9.62,.21Z"/><path class="y" d="M562.28,1370.83c-.79-.78-1.58-1.57-2.37-2.35,31.61-.13,63.22-.26,94.83-.39-.02,.91-.04,1.82-.06,2.74h-92.41Z"/><path class="p" d="M624.26,483.77c-15.9,3.84-16.71,3.71-26.61-4.07,9.41-5.62,15.33-4.71,26.61,4.07Z"/><path class="u" d="M954.63,1277.59c0-.65,0-1.31,0-1.96,4.86-.23,9.72-.45,14.58-.68,21.6,0,43.19,0,64.79,0,0,.88,0,1.76,0,2.64h-79.35Z"/><path class="p" d="M776.44,485.42c-3.6-.72-9.45,1.75-9.29-5.37,.1-4.44,4.05-4.38,7.1-4.04,4.76,.54,11.82-.32,12.25,5.74,.31,4.37-6.06,3.35-10.05,3.67Z"/><path class="w" d="M666.75,1677.54c2.44,1.21,4.77,3.02,7.35,3.52,9.89,1.93,10.16,7.81,6.84,15.42-3.12-.77-6.25-1.54-9.37-2.31l.04,.05c1.69-6.53-6.63-10.13-4.87-16.68Z"/><path class="y" d="M274.45,264.39c-1.16-.13-2.33-.26-3.5-.38,2.17-3.24,5.57-2.45,8.6-2.45,20.51-.03,41.01,.02,61.52,.12,.99,0,1.98,.68,2.9,2.72h-69.53Z"/><path class="t" d="M103.03,365.95c-1.68,.11-3.37,.22-5.05,.33,.21-11.94,.42-23.88,.63-35.82l4.09,.1c.09,.92,.17,1.84,.26,2.76,.02,10.88,.05,21.76,.07,32.64Z"/><path class="w" d="M180.58,435.08c-.53,11.06,1.98,21.04,10.19,29.04-15.41-3.96-19.4-15.35-10.19-29.04Z"/><path class="v" d="M726.4,1040.25c-8.02-.01-16.04-.03-24.06-.04-.73-.91-1.46-1.82-2.19-2.74,9.54-.12,19.08-.23,28.62-.35l4.48-.19c10.3,.06,20.61,.13,30.91,.19-.04,1.07-.08,2.15-.12,3.22-9.48,.05-18.96,.1-28.44,.15l-9.2-.26Z"/><path class="y" d="M812.54,1539.88c1.34-.07,2.68-.14,4.02-.21,12.26,4.46,24.94,.98,37.39,1.94,5.03,.39,10.12,.06,15.21,2.49-17.75,0-35.49,.05-53.24-.06-2.31-.01-3.13-2.05-3.38-4.16Z"/><path class="y" d="M900.27,1347.08c-.83-.11-1.67-.22-2.5-.32-.16-18.86-.32-37.73-.49-56.59,1.05,.08,2.1,.15,3.15,.23,.16,18.13,.32,36.27,.48,54.4-.27,.74-.48,1.5-.65,2.28Z"/><path class="y" d="M594.98,954.36h-51.7l-.02-2.57c17.28,0,34.56,0,51.84,0-.04,.85-.09,1.71-.13,2.57Z"/><path class="p" d="M1052.31,785.58c-1.24,6.47-5.34,9.12-11.72,9.19-4.99,.05-9.97,.54-15.37-.07,9.51-2.93,19.99-3.8,27.01-11.9,.03,.93,.06,1.85,.08,2.78Z"/><path class="p" d="M422.11,597.3c-2-3.1-3.76-6.34,.32-9.06,2.75-1.84,5.92-2.16,8.84-.23,4.36,2.89,1.19,6.06,.16,9.13-3.1,.05-6.21,.11-9.31,.16Z"/><path class="t" d="M97.64,259.14c1.25-7.22-1.02-14.79,2.2-23.85,5.24,8.68,1.74,16.67,3.39,23.85l-.84,.39c-1.3,0-2.6,0-3.9,0l-.85-.4Z"/><path class="k" d="M385.91,518.63c-.47,7.21-3.37,14.16-2.35,21.53-1.97-.12-3.71-.66-4.75-2.53,.08-7.19-.17-14.5,7.1-19.01Z"/><path class="y" d="M640.37,1035.53c.07,.8,.14,1.6,.21,2.4-12.04,0-24.08,0-36.12,0,0-.8,0-1.6,0-2.4h35.9Z"/><path class="n" d="M431.12,573.68c-.2,.32-.33,.8-.61,.91-.56,.23-1.2,.25-1.8,.36,.18-.14,.34-.32,.54-.42,.61-.31,1.24-.58,1.87-.86Z"/><path class="k" d="M716.7,1051.93c3.21-.07,6.41-.14,9.62-.21-1.74,4.2-5.51,4.71-9.33,5.12-.1-1.64-.2-3.27-.3-4.91Z"/><path class="k" d="M730.95,1646.69c-1.96-.06-3.71-.5-4.7-2.43,2.39,.06,4.79,.11,7.18,.17-.83,.76-1.65,1.51-2.48,2.26Z"/><path class="w" d="M200.16,469.24c2.1-.48,3.82-.07,4.78,2.08-2.01,.26-3.58-.49-4.78-2.08Z"/><path class="w" d="M562.44,825.71l-2.78-.05c.97-2.25,1.88-1.37,2.78,.05Z"/><path class="p" d="M502.62,418.8l-.55,.93c.16-.33,.32-.66,.49-.99l.06,.06Z"/><path class="w" d="M190.75,464.09c.88,.73,1.76,1.45,2.65,2.18-.88-.73-1.76-1.45-2.65-2.18Z"/><path class="p" d="M671.58,1694.17c-.16,.33-.33,.66-.49,.99,.18-.31,.36-.63,.54-.94l-.04-.05Z"/><path class="k" d="M697.76,1689.17c7.48,1.47,9.6-1.95,9.72-9.1,.16-9.9,1.63-19.73,13.38-23.23,2.25-.67,5.09-1.51,6.42,.97,1.5,2.81-.8,4.39-3.28,4.96-6.05,1.4-6.89,6.76-6.6,10.99,.41,5.9,6.09,3.09,9.61,3.7,1.88,.32,4.21-.23,5.07,2.07,.89,2.4-.96,3.71-2.75,4.5-13.49,5.93-9.08,11.35,.37,16.73,1.49,.84,2.93,1.93,.12,2.86-1.06,.35-2.35,.03-3.53,0-12.33-1.49-8.13-12.19-10.34-20.18-7.97,5.71-5.97,13.38-6.31,20.32h0c-2.15-6.35-8.31-9.43-11.88-14.61Z"/><path class="k" d="M726.31,1644.29c-7.03,.03-14.11-.43-21.09,.2-7.94,.72-14.5-1-19.41-7.55,.03-.69,.06-1.38,.07-2.07,.15-5.03-.6-10.3,.65-15.04,2.04-7.72-1.72-8.92-7.77-8.75l-.24-.31c.59-4.19,3.39-4.91,6.87-4.16,3.66,.79,4.79,3.63,5.11,6.98,.85,8.75-3.32,19.18,4.53,25.68,7.36,6.1,17.43,1.34,26.18,2.67,1.78,.27,3.4,1.54,5.1,2.35Z"/><path class="k" d="M676.52,1663.28c4.43-14.84,14.7-3.79,22.21-5.39-7.59,.33-12.37,8.04-20.08,7.66-.71-.76-1.42-1.51-2.13-2.26Z"/><path class="k" d="M688,1672.65c4.85-3.06,9.69-6.12,16.07-10.15-.21,7.8-4.92,9.94-8.74,12.7-2.73-.04-5.55,.2-7.34-2.55Z"/><path class="a`" d="M654.37,1628.27c2.08,.46,2.77,2.12,2.68,4.19-.08,2.08-.82,3.98-3.31,3.43-1.99-.44-3.15-2.14-3.16-4.27-.01-2.3,1.26-3.44,3.79-3.34Z"/><path class="a`" d="M654.82,1622.21l-.73-.61c.28-.15,.58-.44,.85-.41,.26,.03,.49,.37,.73,.57-.28,.15-.57,.3-.85,.45Z"/><path class="w" d="M709.63,1703.78l.93,.52c-.31-.18-.62-.35-.93-.53h0Z"/><path class="k" d="M728.34,1260.58c-1.24,.27-2.47,.54-3.7,.81-1.8-.21-3.6-.42-5.4-.64,3.64-5.32,4.86-11.02,4.74-17.6-.27-16.07,9.11-29.27,15.97-42.6,4.3-8.36,4.57-15.84,3.64-23.68-1.89-15.94-.23-21.22,14.15-28.74,5.89-3.08,7.72-8.01,8.24-13.35,.64-6.54-5.67-3.43-8.74-4.93-7.75-3.81-4.65-11.96-6.56-17.93-1.66-5.16-2.01-10.33-5.89-14.9-7.44-8.74-1.14-18.97-1.98-28.5l.26-.25c3.38,.4,5.31,2.56,4.49,5.66-4.32,16.28,7.32,29.11,9.21,44.03,1.18,9.35,5.66,9.62,11.5,3.47,7.28-7.68,13.68-14.5,26.32-8.3,9.01,4.42,19.38-.28,29.19-1.17,12.47-1.13,16.84-5.62,16.85-17.23,0-8.21,3.06-18.53,9.68-20.29,15.45-4.11,31.58-11.82,48.07-2.52,2.98,1.68,5.86,1.74,8.48-1.23,6.55-7.44,5.97-23.46-1.24-30.35-1.68-1.6-4.8-3.37-4.7-4.89,1-14.8-9.26-12.45-18.13-12.36-5.33,.05-10.39,.07-11.27-7.26-1.42-11.83-3.28-23.6-4.95-35.4l.25-.24c7.28,1.43,4.28,8.42,6.54,12.57,1.19,2.19,.36,5.45,.61,8.2q1.6,17.38,18.91,17.43c7.1,.04,16.58-2.47,11.99,10.84-.75,2.16,.07,5.03,2.18,6.46,12.16,8.24,10.71,20.38,6.19,30.73-6.28,14.4-1.4,28.26-.71,42.1,.4,8.11,10.37,6.55,16.45,5.76,5.69-.74,10.07-.03,13.97,4l-.1,.06c-8.96-.42-17.81,1.38-26.93,.32-7.91-.92-10.2-2.12-9.39-11.31,2.26-25.57-8.43-38.78-27.87-36.07-5.42,.76-10.64,3.7-16.01,3.9-11.68,.44-16,7.74-17.15,17.46-1.18,9.91-4.72,19.04-7.45,28.45-5.55-1.58-9.85-6.17-16.58-5.24-8.26,1.15-4.87,13.33-11.6,12.67-4.87-.48-4.27-12.01-13.3-10.39-3.01,.54-6.31-.14-9.41-.64-9.18-1.47-13.94,2.51-15.75,11.45-2.15,10.65-3.45,21.22-16.86,25.67-9.87,3.28-3.99,14.53-6.5,21.85-.79,2.3-.05,5.58,1.01,7.96,6.45,14.54-7.4,22.04-12.15,32.06-6.86,14.48-9.87,28.56-8.54,44.06Z"/><path class="k" d="M635.91,795c0-1.56-.23-3.16,.02-4.68,3.57-21.34,3.44-21.43-18.01-24.42-3.89-.54-7.71-1.93-8.24-6.86l.14-.15c4.23,.5,8.1,2.08,12.64,2.12,12.95,.11,25.7,3.61,33.95,13.97,6.79,8.53,16.89,14.11,21.18,25.05,1.29,3.28,6.97,4.28,11.7,2.55,9.74-3.56,19.28-3.95,28.59,2.01,5.77,3.7,8.78,1.44,11.02-5.19,3.01-8.89,.77-16.02-3.75-23.42-6.84-11.22-5.35-16.8,5.84-23.39-4.36-.8-7.67-2.23-7.04-7.59,.48-4.11,2.29-7.42,6.4-7.01,9.75,.98,19.33-4.08,29.07-.55l.31,.35c-1.9,6.8-7.56,4.08-11.85,4.57-5.78,.66-11.73-.98-17.34,1-1.52,3.6,1.75,4,3.2,5.5,4.77,4.91,7.72,9.13-2.65,10.35-7.1,.83-9.17,5.11-4.63,10.57,8.86,10.65,6.34,22.46,5.93,34.74-.75,22.3-9.99,33.38-33.16,35.79-14.77,1.54-22.02,9.11-21.5,24.96,.04,1.1-.29,2.99-.9,3.21-16.76,5.79-8.14,18.29-7.66,28.61-11.32-11.85-11.59-18.4-.77-29.46,2.16-2.21,2.46-4.6,3.15-7.29,3.68-14.19,13.18-22.32,27.39-25.15,6.97-1.39,20.06-15.6,19.59-22.01-.42-5.72-5.51-5.64-9.66-6.66-8.88-2.18-17.55,1.92-26.51,.54-5.49-.85-8.6-2.39-11.72-7.69-6.56-11.16-16.31-19.89-28.34-30.42,1.63,11.57-.25,19.53-6.41,26.03Z"/><path class="k" d="M954.71,1211.2c-.17-4.98,3.7-6.36,7.14-8.37,11.39-6.66,12.84-14.12,4.33-27.46-1.59,9.64-6.83,15.72-12.84,21.77-11.6,11.69-24.66,13.32-39.78,9.26-19.66-5.27-20.52-5.47-9.48-23.46,6.34-10.34,5.7-13.95-5.8-19.72-16.64-8.36-35.25-13.96-48.62-28.15,3.23-.19,6.55-.03,9.02,2.15,11.08,9.77,25.69,12.93,38.06,20.6,18.12,11.23,18.91,9.95,10.35,29.65-.31,.72-.66,1.43-1,2.15-2.88,6.17-.41,9.82,5.63,11.59,3.39,.99,6.84,1.88,10.32,2.49,10.74,1.86,35.26-9.85,35.69-19.66,.47-10.57,3.12-20.55,4.01-30.87,.47-5.51-3.43-6.72-7.78-6.15-7.64,1.01-9.83-4.12-10.58-9.75-.82-6.22-.42-12.6-.55-18.91l.1-.06c3.52,3.72,3.63,8.85,4.21,13.26,1.06,8.04,2.02,13.7,12.7,11.02,4.15-1.04,9.27,1.11,7.46,8.53-2.08,8.58-4.12,16.04,5.23,24.39,9.47,8.45,3.67,25.1-8.05,31.5-3.1,1.69-6.51,2.81-9.78,4.19Z"/><path class="p" d="M883.3,697.49c7.17,.06,14.33,.12,21.5,.18-1.66,7.83,3.87,12.59,8.31,17.13,7.79,7.95,12.63,15.59,3.62,25.59-1.79,2.37-4.45,2.03-6.94,2.23-4.48-4.64-7.3-2.08-9.72,2.24v.03c-4.03,0-8.05,0-12.07-.01h-.01c-2.98-9.72-11.71-19.13-4.9-29.61,4.38-6.74,3.41-11.82,.21-17.78Z"/><path class="k" d="M738.06,951.93c-5.87-5.49-8.9-15.01-20.24-12.51-3.89,.86-5.5-3.47-5.8-7.41-.29-3.85,.94-7.87-1.13-11.54-20.4,5.35-36.4-2.75-36.99-18.66,6.2-.08,4.79,7.16,9.48,9.46,9.15,4.48,17.16,11.78,27.48,2.11,3.23-3.03,5.8-.73,5.85,3.59,.04,3.17,.19,6.36-.08,9.51-.59,6.87,2.76,8.16,9.13,8.83,16.38,1.71,30.1-4.34,42.93-13.1,4.09-2.79,8.33-4.67,12.87-5.66,12.78-2.8,14.74-.51,14.65,12.84-.11,16.08,7.02,30.43,26.6,30.14,8.41-.12,17.95,4.2,22.62,13.5l-.28,.29c-9.05-2.69-17.17-8.54-25.91-10.74-21.61-5.45-25.52-8.4-27.6-30.14-1.23-12.81-6.69-15.08-17.92-8.13-8.92,5.52-17.89,13.29-27.58,14.62-11.05,1.52-9.24,6.09-7.84,12.77l-.26,.24Z"/><path class="k" d="M838.16,697.68c7.82-.04,15.65-.09,23.47-.13-9.47,6.43-21.89,5.47-31.18,12.44-2.23,1.68-4.48-.16-6.65-.95-4.19-1.52-9.97-5.34-11.23,1.87-1.05,5.97-4.59,14.9,6.44,17.11,2.58,.52,6.15-.33,6.52,3.44,.37,3.72-4.35,3.02-5.6,5.01-5.2,8.28-14.33,10.54-21.81,15.36-6.75,4.35-13.44,5.49-20.84,2.91-7.11-2.48-14.4-4.86-13.78-14.77,.04-.64-2.44-1.44-3.75-2.16l-.31-.34c.2-3.55,6.16-6.78,.2-10.79-2.9-1.95-3.22-5.48-.7-8.22,3.53-3.84,1.92-6.78-.7-10.18-2.38-3.1-3.98-6.71-3.32-10.87,1.54,.07,3.08,.14,4.61,.21,2.15,8.81,4.82,17.3,6.16,26.52,3.24,22.26,8.55,25.62,25.7,24.45,8.39-.57,14.73-5.41,20.22-11.08,5.3-5.47-3.35-8.76-2.97-13.59,.77-9.96-6.92-17.1-8.55-26.24,4.73,0,9.45,0,14.18,0,8.85,8.73,15,8.73,23.88,0Z"/><path class="k" d="M916.73,740.39c9.01-10,4.17-17.64-3.62-25.59-4.44-4.53-9.98-9.3-8.31-17.13,2.35-.05,4.7-.1,7.04-.15-1.15,3.96-1.22,7.75,2.06,10.82,5.87,5.49,8.33,13.09,12.5,19.6,2.3,3.58,6.17,14.49,10.79,.7,1.13-3.38,4.57-1.63,7.28-1.37,13.26,1.24,22.14-3.1,22.1-18.16l.09-.07c4.26,.59,5.08,3.01,3.71,6.76-1.6,4.38-3.09,8.8-5.34,15.24,9.26-5.38,15.57,1.68,23.07,1.92-9.64,8.58-19.31,.52-28.77-.51-4.3-.47-9.37-2.77-12.08,.4-8.63,10.13-20.18,5.89-30.52,7.55Z"/><path class="k" d="M883.3,697.49c3.2,5.96,4.16,11.04-.21,17.78-6.8,10.48,1.93,19.88,4.9,29.6-10.65-5.34-14.54-16.61-9.7-30.63,2.39-6.93,3.54-12.72-4.22-16.7,3.08-.02,6.15-.03,9.23-.05Z"/><path class="k" d="M942.5,1227.12c-2.32,.3-4.65,.59-6.97,.89,3.53-8.89,8.81-15.79,19.21-16.84-2.94,6.2-10.53,8.82-12.24,15.95Z"/><path class="k" d="M988.12,732.97c2.43-5.99,2.09-13.56,9.54-16.68-1.72,6.4-.22,14.63-9.54,16.68Z"/><path class="k" d="M845.45,973.02c6.36,1.5,14.2-2.86,18.99,4.83l-.27,.3c-6.4-1.36-14.27,3.1-19-4.83l.28-.29Z"/><path class="k" d="M888.01,744.88c4.02,0,8.04,0,12.06,.01-4.03,7.76-8.05,7.01-12.06-.01Z"/><path class="k" d="M900.08,744.86c2.42-4.31,5.24-6.87,9.72-2.24-2.73,2.95-6.32,2.17-9.72,2.24Z"/><path class="k" d="M997.64,716.29c-.34-4.14,.33-7.78,4.77-9.53,.19,4.07-.7,7.59-4.77,9.53Z"/><path class="k" d="M673.94,901.85c-3.1-.11-4.61-1.79-4.8-4.8,3.21,0,4.78,1.62,4.8,4.8Z"/><path class="k" d="M1002.38,706.76c.81-.81,1.63-1.63,2.44-2.44-.81,.81-1.63,1.63-2.44,2.44Z"/><path class="k" d="M864.44,977.85c.79,.79,1.58,1.58,2.37,2.37l-.24,.23c-.8-.77-1.6-1.53-2.4-2.3l.27-.3Z"/><path class="p" d="M942.83,1118.37c.13,6.31-.27,12.69,.55,18.91,.75,5.63,2.94,10.75,10.58,9.75,4.35-.57,8.25,.64,7.78,6.15-.89,10.32-3.54,20.29-4.01,30.87-.44,9.8-24.95,21.52-35.69,19.66-3.48-.6-6.93-1.49-10.32-2.49-6.04-1.77-8.5-5.42-5.63-11.59,.33-.72,.68-1.42,1-2.15,8.56-19.69,7.76-18.41-10.35-29.65-12.37-7.67-26.97-10.83-38.06-20.6-2.47-2.17-5.79-2.34-9.02-2.15-.7-.7-1.4-1.4-2.09-2.11,.33-5.36-.86-9.57-7.37-9.77-.72-.7-1.44-1.4-2.16-2.09,2.72-9.41,6.27-18.54,7.45-28.45,1.16-9.71,5.47-17.02,17.15-17.46,5.38-.2,10.59-3.15,16.01-3.9,19.43-2.71,30.13,10.51,27.87,36.07-.81,9.19,1.48,10.39,9.39,11.31,9.11,1.07,17.96-.73,26.93-.32Z"/><path class="k" d="M709.75,1306.49c-4.77,12.11-1.82,24.13,.55,36.11,.6,3.02,3.12,6.57-.65,8.47-9.82,4.93-8.6,14.47-9.31,22.57-1.26,14.31-.86,30.07-4.17,42.65-4.32,16.45,8,29.37,2.46,44.03-.13,.33-.11,.85,.07,1.15,2.33,4.06,10.66,4.11,7.99,11.35-1.56,4.23-5.85,7.63-3.93,13.65-3.89-3.27-9.85-5.88-11.14-9.96-1.6-5.07,6.72-1.96,8.9-6.82-6.79-1.2-9.13-5.28-6.12-11.92,2.39-5.27,.16-11.02-2.1-14.78-4.96-8.23-3.54-15.83-.82-23.68,2.7-7.8,1.28-15.7,1.35-23.53,.15-17.06,2.24-33.18,12.6-47.82,3.75-5.3-2.17-12.88-1.27-19.31,1.06-7.57-6.16-17.33,5.3-22.44l.29,.28Z"/><path class="p" d="M930.38,1261.25c-6.92-.45-13.82,2.31-20.76,.14,2.3-9.16,5.82-17.28,16.51-19.25-2.15,8.93,5.91,12.68,9.48,18.71-1.75,.13-3.49,.26-5.24,.4Z"/><path class="k" d="M686.04,1556.37c.5,7.79-2.2,14.08-7.23,20.25-8.96,10.98-8.59,26.04-.28,34.16l.24,.31c-6.02,4.42-8.87,.92-9.32-4.57-1.06-12.87-2.25-26.33,8.51-36.09,4.62-4.2-.23-12.56,7.66-14.37l.41,.33Z"/><path class="k" d="M695.13,1517.99c-.12-8.74-3.22-17.6,2.12-27.21,2.02,10.01,5.05,18.95-1.61,27.65,0,0-.5-.43-.5-.43Z"/><path class="k" d="M690.74,1532.56c-1.57,7.94-3.14,15.87-4.7,23.81l-.41-.33c-2.25-8.71-5.7-17.65,4.85-23.74l.26,.26Z"/><path class="k" d="M714.5,1294.89c1.56-.04,3.13-.08,4.69-.12,.07,6.5-4.14,9.55-9.45,11.72l-.29-.28c1.68-3.77,3.36-7.55,5.05-11.32Z"/><path class="p" d="M926.38,1233.14c2.36-.25,4.71-.5,7.07-.74-.37,4.76-3.22,7.67-7.26,9.68,.06-2.98,.12-5.96,.19-8.94Z"/><path class="k" d="M840.2,1123.2c6.51,.19,7.7,4.4,7.37,9.77-3.62-2.38-6.6-5.24-7.37-9.77Z"/><path class="k" d="M692.81,1529.93c-.37-4.2-4.06-9.05,2.32-11.94,0,0,.49,.43,.5,.43-.91,3.92,1.24,8.5-2.52,11.81l-.3-.3Z"/><path class="p" d="M662.97,1512.75c.28,.1,.55,.2,.83,.29-.11,.32-.17,.68-.37,.92-.07,.08-.52-.17-.79-.27,.11-.32,.23-.63,.34-.95Z"/><path class="k" d="M693.11,1530.23c-.79,.78-1.59,1.55-2.38,2.33l-.26-.26c.78-.79,1.56-1.58,2.34-2.37l.3,.3Z"/><path class="k" d="M733.33,1032.62c4.39-10.05-4.71-19.01-2.32-29.02,.85-3.55-1.07-8.11,4.57-9.16l.33,.28c.38,6.74-1.89,16,1.66,19.75,9.27,9.8,1.29,13.2-4.1,18.28l-.15-.13Z"/><path class="k" d="M738.05,989.77c-4.88-12.2,2.96-23.55,2.36-35.47l.25-.21c2.93,1.64,5.46,4.1,4.08,7.44-3.79,9.17-1.05,19.73-6.4,28.48l-.28-.24Z"/><path class="k" d="M602.62,814.17c8.2-7.57,18.42-11.19,28.73-14.6-6.61,10.71-18.07,11.87-28.73,14.6Z"/><path class="k" d="M593.12,826.07c-.4-5.43,.77-9.69,7.4-9.82-.81,4.52-3.92,7.31-7.4,9.82Z"/><path class="k" d="M733.25,1036.94l-4.48,.19c.04-3,1.6-4.47,4.56-4.5l.15,.13c-.08,1.39-.15,2.79-.22,4.19Z"/><path class="k" d="M735.59,994.44c.1-1.94,.69-3.62,2.46-4.67l.27,.24c-.06,1.95-.61,3.64-2.4,4.71l-.33-.28Z"/><path class="k" d="M740.4,954.31c-.78-.79-1.56-1.59-2.34-2.38l.25-.23c.78,.8,1.55,1.6,2.33,2.4l-.25,.21Z"/><path class="k" d="M759.56,694.48c-1.55,.05-3.1,.1-4.65,.15,0-4.31-.59-8.68,1.73-12.69,4.98-8.61,2.85-10.36-6.89-8.97-10.24,1.46-21.98,3.01-26.03-11.29l.19-.2c9.74,6.92,20.71,7.9,32.25,7.26,6.52-.36,12.72-.05,6.68,9.74-2.68,4.35-2.28,10.61-3.28,16Z"/><path class="a`" d="M697.77,605.13c5.79,2,7.85,6.7,9.05,11.66,1.05,4.36-.58,8.12-5.5,8.66-7.08,.77-8.09-5.61-9.51-10.02-1.5-4.66,2.8-7.43,5.96-10.29Z"/><path class="a`" d="M855.9,677.02c-.63-6.09-.45-13.54,4.7-15.27,8.46-2.84,5.96-7.78,3.99-14.41,10.45,10.62,10.63,10.93,.45,16.82-5.17,3-1.47,11.22-9.13,12.86Z"/><path class="a`" d="M878.51,694.52c-4.72,0-9.44,0-14.16,0,1.22-3.27-3.31-9.15,3.93-9.61,6.44-.41,11.76,1.16,10.23,9.61Z"/><path class="k" d="M697.39,661.59c-1.84-1.54-3.68-3.09-5.53-4.63,7.7-.08,15.4-.23,23.1-.22,3.74,0,8.08-.83,8.95,4.74l-.19,.2c-8.76-2.99-17.55,.41-26.32-.08Z"/><path class="a`" d="M685.66,652.12c-.75-.1-1.46-.35-2.1-.75-1.35-5.34,3.59-10.75-.2-16.06,8.7,4.52,4.92,10.74,2.3,16.81Z"/><path class="a`" d="M676.15,619.06c.76-5.77-1.79-12,2.4-17.3,2.62,6.24,.69,11.85-2.4,17.3Z"/><path class="a`" d="M681.03,628.27c-.48-3.35-12.74,.87-5-7.78,2.86,1.82,5.14,4.02,5,7.78Z"/><path class="a`" d="M683.43,635.39c-2.6-1.81-2.41-4.56-2.47-7.24,2.78,1.74,2.41,4.56,2.47,7.24Z"/><path class="y" d="M98.49,259.53c1.3,0,2.6,0,3.9,0,.1,23.67,.21,47.35,.31,71.02-1.36-.03-2.73-.07-4.09-.1-.3-3.8-.59-7.6-.89-11.4l.77-59.52Z"/><path class="u" d="M207.98,300.01l1.09-.17c.28,37.09,.56,74.19,.84,111.28-.89,.04-1.79,.09-2.68,.13,.25-37.08,.5-74.16,.75-111.25Z"/><path class="a`" d="M97.72,319.05c.3,3.8,.59,7.6,.89,11.4-.21,11.94-.42,23.88-.63,35.82-.45,.46-1,.72-1.64,.78-4.06-1.71-5.48-5.59-7.24-9.07-13.61-26.84-28.71-52.48-49.94-74.41-6.14-6.34-6.11-17.46-7.43-26.75-.29-2.05,1.1-3.66,3.24-4.39,7.53-2.58,23.73,6.63,24.85,14.5,1.62,11.46,12.77,20.45,8.51,33.36,13.34,.7,15.2,19.4,29.4,18.76Z"/><path class="k" d="M726.4,1040.25c3.07,.09,6.13,.17,9.2,.26,6.02,8.31,3.99,18.78,7.46,27.77l-.26,.25c-7.4-2.88-6.13-9.79-7.2-15.59-.53-2.85-1.8-5.64-4.45-6.29-3.67-.9-2.02,4.53-4.91,5.15,.05-3.85,.1-7.69,.15-11.54Z"/><path class="k" d="M593.18,746.1c.7-.45,1.45-.61,2.27-.47,1.63,7.84,14.07,3.99,14.37,13.27l-.14,.15c-5.95-2.48-12.53-3.86-16.66-9.52,.05-1.14,.11-2.28,.16-3.42Z"/><path class="a`" d="M593.18,746.1c-.05,1.14-.11,2.28-.16,3.42-2.82-.11-4.58-1.36-4.68-4.38,1.61,.32,3.22,.64,4.84,.96Z"/><path class="k" d="M431.27,544.78c-6.37-1.16-10.29,6.14-16.7,4.84,4.98-6.84,8.16-15.27,16.72-18.96-2.96,4.7-2.89,9.41-.02,14.12Z"/><path class="k" d="M438.13,549.62c-3.47,.08-6.75-.12-6.83-4.83,2.38,.82,4.75,1.64,7.13,2.46-.1,.79-.2,1.58-.3,2.37Z"/><path class="k" d="M961.9,697.46c.78-.31,1.55-.3,2.32,.04,.82,3.85,1.64,7.69,2.46,11.54l-.09,.07c-5.26-2.39-4.79-7.09-4.69-11.65Z"/><path class="w" d="M609.82,758.91c-.31-9.28-12.74-5.43-14.37-13.27,10.61-.25,21.21-.44,31.81-.78,3.8-.12,7.99,1.15,11.06-2.44,10.71,2.08,20.92,5.66,32.48,2.65,22.86-5.95,37.91-23.46,38.82-47.5,15.1-.05,30.2-.11,45.3-.16-.66,4.16,.94,7.77,3.32,10.87,2.62,3.41,4.23,6.35,.7,10.18-2.52,2.74-2.2,6.27,.7,8.22,5.97,4.01,0,7.23-.2,10.79-9.74-3.53-19.31,1.52-29.07,.54-4.11-.41-5.92,2.9-6.4,7.01-.63,5.36,2.68,6.8,7.04,7.59-11.19,6.59-12.69,12.17-5.84,23.39,4.51,7.4,6.75,14.53,3.75,23.42-2.24,6.63-5.25,8.89-11.02,5.19-9.31-5.96-18.85-5.57-28.59-2.01-4.72,1.72-10.41,.73-11.7-2.55-4.29-10.94-14.39-16.52-21.18-25.05-8.25-10.36-21-13.86-33.95-13.97-4.54-.04-8.41-1.62-12.64-2.12Z"/><path class="p" d="M800.1,697.67c1.63,9.14,9.32,16.28,8.55,26.24-.37,4.83,8.27,8.12,2.97,13.59-5.49,5.67-11.83,10.5-20.22,11.08-17.15,1.17-22.46-2.19-25.7-24.45-1.34-9.22-4.01-17.71-6.16-26.52,13.52,.02,27.04,.04,40.56,.06Z"/><path class="p" d="M961.9,697.46c-.11,4.55-.58,9.25,4.69,11.65,.04,15.06-8.85,19.4-22.1,18.16-2.71-.25-6.15-2.01-7.28,1.37-4.61,13.79-8.49,2.88-10.79-.7-4.18-6.51-6.63-14.11-12.5-19.6-3.28-3.07-3.21-6.86-2.06-10.82,16.68-.02,33.37-.04,50.05-.06Z"/><path class="w" d="M697.39,661.59c8.77,.5,17.56-2.91,26.32,.08,4.05,14.3,15.79,12.75,26.03,11.29,9.75-1.39,11.88,.35,6.89,8.97-2.32,4-1.73,8.38-1.73,12.69-15.1-.05-30.2-.1-45.31-.16,.67-12.72-5.96-22.72-12.21-32.87Z"/><path class="p" d="M838.16,697.68c-8.88,8.72-15.03,8.72-23.88,0,7.96,0,15.92,0,23.88,0Z"/><path class="w" d="M743.07,1068.28c-3.47-8.99-1.44-19.46-7.46-27.77,9.48-.05,18.96-.1,28.44-.15,4.37,13.29,12.9,18.72,23.5,14.95,9.45-3.37,13.93-13.63,10.09-23.32-3.02-7.63-9.23-11.08-16.87-10.5-9.23,.71-15.24,6-16.6,15.65-10.3-.06-20.61-.13-30.91-.19,.07-1.4,.15-2.79,.22-4.19,5.39-5.09,13.37-8.49,4.1-18.28-3.55-3.75-1.28-13-1.66-19.75,1.79-1.07,2.35-2.76,2.4-4.71,5.36-8.75,2.61-19.31,6.41-28.48,1.38-3.34-1.14-5.8-4.08-7.44-.78-.8-1.56-1.6-2.33-2.4-1.4-6.68-3.21-11.25,7.84-12.77,9.69-1.33,18.66-9.1,27.58-14.62,11.23-6.95,16.69-4.68,17.92,8.13,2.08,21.74,5.99,24.69,27.6,30.14,8.74,2.2,16.86,8.05,25.91,10.74,4.73,7.93,12.6,3.48,19,4.83,.8,.77,1.6,1.53,2.4,2.3,1.67,11.8,3.53,23.57,4.95,35.4,.88,7.34,5.94,7.32,11.27,7.26,8.88-.09,19.13-2.44,18.13,12.36-.1,1.52,3.03,3.28,4.7,4.89,7.21,6.89,7.79,22.91,1.24,30.35-2.62,2.97-5.5,2.91-8.48,1.23-16.49-9.3-32.62-1.59-48.07,2.52-6.61,1.76-9.67,12.08-9.68,20.29-.01,11.61-4.39,16.1-16.85,17.23-9.81,.89-20.18,5.59-29.19,1.17-12.64-6.2-19.04,.62-26.32,8.3-5.83,6.15-10.32,5.88-11.5-3.47-1.89-14.92-13.53-27.75-9.21-44.03,.82-3.11-1.11-5.26-4.49-5.66Z"/><circle class="o" cx="269.11" cy="466.35" r="44.54"/><circle class="q" cx="269.11" cy="466.35" r="23.04"/><circle class="o" cx="1133.01" cy="1123.51" r="30.64"/><circle class="q" cx="1133.01" cy="1123.51" r="15.85"/><circle class="o" cx="714.48" cy="1255.86" r="41.16"/><circle class="q" cx="714.48" cy="1255.86" r="21.29"/><circle class="q" cx="901.8" cy="1275.35" r="23.04"/><circle class="q" cx="106.28" cy="378.43" r="23.04"/><circle class="q" cx="782.97" cy="1037.03" r="19.56"/><circle class="o" cx="511.19" cy="612.33" r="27.88"/><circle class="q" cx="511.19" cy="612.33" r="14.42"/><circle class="a`" cx="511.19" cy="612.33" r="9.9"/><circle class="o" cx="659.45" cy="697.67" r="52.65"/><circle class="q" cx="659.45" cy="697.67" r="27.24"/><circle class="a`" cx="659.45" cy="697.67" r="18.68"/><circle class="q" cx="814.28" cy="1254.01" r="23.04"/><circle class="o" cx="814.28" cy="1254.01" r="7.47"/><circle class="q" cx="878.76" cy="1278.98" r="23.04"/><circle class="o" cx="878.76" cy="1278.98" r="7.47"/><circle class="q" cx="212.09" cy="439.39" r="35.13"/><circle class="o" cx="212.09" cy="439.39" r="11.4"/><circle class="q" cx="287.82" cy="443.79" r="23.04"/><circle class="o" cx="287.82" cy="443.79" r="7.47"/><circle class="q" cx="459.02" cy="546.7" r="21.28"/><circle class="o" cx="459.02" cy="546.7" r="6.9"/><circle class="q" cx="629.76" cy="677.09" r="23.04"/><circle class="o" cx="629.76" cy="677.09" r="7.47"/><circle class="q" cx="614.2" cy="957.61" r="23.88"/><circle class="o" cx="614.2" cy="957.61" r="7.75"/><circle class="q" cx="677.29" cy="1315.49" r="22.27"/><circle class="o" cx="677.29" cy="1315.49" r="7.22"/><circle class="q" cx="675.78" cy="1373.29" r="20.58"/><circle class="o" cx="675.78" cy="1373.29" r="6.68"/><circle class="q" cx="934.54" cy="1281.65" r="24.12"/><circle class="o" cx="934.54" cy="1281.65" r="7.82"/><path class="u" d="M632.09,731.72c-.02,3.69-1.65,7.41,.88,11.07,.15,.14,.21,.28,.18,.43l-.02,.02c-.5,.1-.99,.2-1.49,.3-2.3-.68-1.48-1.62-1.57-2.48-.23-2.38-.35-4.75-.52-7.13,.09-.18-.01-.35-.3-.51,.2-.36,.41-.72,.61-1.09,.02-.37,.04-.73,.06-1.1-.04-12.34-.07-24.67-.11-37.68,2.39,1.57,1.68,2.56,1.7,3.51,.23,11.55,.39,23.1,.57,34.66Z"/><text class="i" transform="translate(9.43 210.31)"><tspan x="0" y="0">La </tspan><tspan class="f" x="49.81" y="0">P</tspan><tspan x="72.74" y="0">az</tspan></text><text class="j" transform="translate(21.08 163.73)"><tspan x="0" y="0">5.000</tspan></text><text class="j" transform="translate(652.45 269.62)"><tspan x="0" y="0">433.891</tspan></text><text class="j" transform="translate(636.8 386.34)"><tspan x="0" y="0">30.000</tspan></text><text class="j" transform="translate(828.1 552.59)"><tspan x="0" y="0">1.464</tspan></text><text class="j" transform="translate(1164.56 711.55)"><tspan x="0" y="0">611.472</tspan></text><text class="j" transform="translate(1475.77 1068.52)"><tspan x="0" y="0">217.000</tspan></text><text class="j" transform="translate(1254.26 1242.14)"><tspan x="0" y="0">69.802</tspan></text><text class="j" transform="translate(1239.36 1292.39)"><tspan x="0" y="0">47.742</tspan></text><text class="j" transform="translate(1243.39 1441.93)"><tspan x="0" y="0">255.264</tspan></text><text class="j" transform="translate(1009.89 1556.04)"><tspan x="0" y="0">56.602</tspan></text><text class="j" transform="translate(489.35 1628.26)"><tspan x="0" y="0">7.508</tspan></text><text class="j" transform="translate(373.37 1447.41)"><tspan x="0" y="0">17.191</tspan></text><text class="j" transform="translate(257.38 1219.59)"><tspan x="0" y="0">510.569</tspan></text><text class="j" transform="translate(441.52 1085.21)"><tspan x="0" y="0">1.349</tspan></text><text class="j" transform="translate(326.74 965.85)"><tspan x="0" y="0">77.000</tspan></text><text class="j" transform="translate(118.99 756.11)"><tspan x="0" y="0">28.708</tspan></text><text class="j" transform="translate(147.03 631.77)"><tspan x="0" y="0">125.542</tspan></text><text class="i" transform="translate(147.92 71.71)"><tspan x="0" y="0">Guadalaja</tspan><tspan class="h" x="166.23" y="0">r</tspan><tspan x="178.38" y="0">a</tspan></text><text class="i" transform="translate(354.53 271.99)"><tspan x="0" y="0">Ciudad de Mxico</tspan></text><text class="i" transform="translate(288.84 631.77)"><tspan x="0" y="0">San Jos</tspan></text><text class="i" transform="translate(512.35 386.34)"><tspan x="0" y="0">Puebla</tspan></text><text class="i" transform="translate(604.05 552.59)"><tspan class="l" x="0" y="0">T</tspan><tspan class="r" x="20.31" y="0">egucigalpa</tspan></text><text class="i" transform="translate(1036.75 711.52)"><tspan x="0" y="0">Bogot</tspan></text><text class="i" transform="translate(1228.79 1068.52)"><tspan x="0" y="0">Ro de Janei</tspan><tspan class="e" x="204" y="0">r</tspan><tspan class="m" x="216.56" y="0">o</tspan></text><text class="i" transform="translate(1100.04 1243.19)"><tspan x="0" y="0">Rosario</tspan></text><text class="i" transform="translate(1040.56 1294.77)"><tspan x="0" y="0">Mont</tspan><tspan class="s" x="86.36" y="0">e</tspan><tspan x="105.74" y="0">video</tspan></text><text class="i" transform="translate(865.05 1556.37)"><tspan x="0" y="0">C</tspan><tspan class="g" x="45.38" y="0">r</tspan><tspan x="57.97" y="0">doba</tspan></text><text class="i" transform="translate(349.03 1401.92)"><tspan x="0" y="0">Concepcin</tspan></text><text class="i" transform="translate(189.11 1161.29)"><tspan x="0" y="0">Santiago de Chile</tspan></text><text class="i" transform="translate(390.05 1048.45)"><tspan x="0" y="0">Cochabamba</tspan></text><text class="i" transform="translate(450.27 965.12)"><tspan x="0" y="0">Lima</tspan></text><text class="i" transform="translate(243.54 754.44)"><tspan x="0" y="0">Medelln</tspan></text><text class="i" transform="translate(470.87 1584.56)"><tspan class="d" x="0" y="0">V</tspan><tspan class="r" x="22.26" y="0">aldivia</tspan></text><text class="i" transform="translate(1024.01 1444.19)"><tspan x="0" y="0">Buenos Ai</tspan><tspan class="x" x="166.57" y="0">r</tspan><tspan x="179.15" y="0">es</tspan></text></g></g></g></g></svg>