<?xml version="1.0" encoding="UTF-8"?><svg xmlns="http://www.w3.org/2000/svg" xmlns:xlink="http://www.w3.org/1999/xlink" viewBox="0 0 196.21 119.91"><defs><style>.e{fill:#76b224;}.f{clip-path:url(#d);}.g{fill:none;}</style><clipPath id="d"><rect class="g" width="196.21" height="119.91"/></clipPath></defs><g id="a"/><g id="b"><g id="c"><g class="f"><path class="e" d="M77.24,37.81c-4.04,7.37-6.73,15.29-8.35,23.47-6.3-11.84-16.05-23.21-25.33-27.94,6.86,13.11,16.35,28.23,23.81,38.33-.17,1.57-.26,3.15-.38,4.76v.69l-.04,.21v.26l-.04,.38c0,.47-.04,.89-.04,1.32v.64l-.04,.59v.77l-.04,.16v3.62c0,3.84,.22,7.66,.51,11.46-11.63-11.33-32.57-21.08-46.8-20.48,15.5,10.05,36.1,20.78,47.18,24.91,.29,2.81,.64,5.62,1.02,8.39C25.64,126.94,20.44,91.76,0,66.26c13.45-4.86,24.82-6.94,34.36-6.69-2.98-12.94-1.23-29.04-3.83-44.83,24.06,4,38.87,12.13,46.71,23.08h0ZM187.19,.04c-20.61,57.7-5.96,123.74-107.35,108.8C70.47,44.51,93.77-1.23,187.19,.04h0Zm-28.32,27.98c-27.93,8.38-63.1,45.43-70.68,73.27,13.32-8.34,47.47-43.52,70.68-73.27h0Z"/></g></g></g></svg>