<?xml version="1.0" encoding="UTF-8"?><svg xmlns="http://www.w3.org/2000/svg" viewBox="0 0 63.23 63.09"><defs><style>.d{fill:none;opacity:.74;stroke:#76b224;stroke-miterlimit:10;stroke-width:4px;}</style></defs><g id="a"/><g id="b"><g id="c"><path class="d" d="M59.9,48.74l-9.15-9.15c-1.82-1.81-4.84-1.76-6.72,.13l-4.61,4.61c-.29-.16-.59-.33-.91-.5-2.91-1.62-6.89-3.82-11.09-8.02-4.2-4.2-6.42-8.2-8.03-11.11-.17-.31-.34-.6-.5-.89l3.09-3.09,1.52-1.52c1.89-1.89,1.94-4.9,.12-6.72L14.48,3.33c-1.81-1.82-4.83-1.76-6.72,.13l-2.57,2.59,.07,.07c-.86,1.1-1.58,2.38-2.12,3.75-.5,1.31-.81,2.55-.94,3.8-1.21,10.01,3.37,19.16,15.78,31.58,17.17,17.16,31,15.87,31.6,15.8,1.3-.15,2.54-.46,3.81-.95,1.36-.53,2.63-1.25,3.73-2.11l.06,.05,2.62-2.56c1.88-1.89,1.94-4.9,.12-6.73h0Z"/></g></g></svg>