<?xml version="1.0" encoding="UTF-8"?><svg xmlns="http://www.w3.org/2000/svg" viewBox="0 0 53.73 53.73"><defs><style>.d{fill:#76b224;opacity:.71;}.e{fill:#fff;}</style></defs><g id="a"/><g id="b"><g id="c"><g><path class="d" d="M26.87,53.73h0C12.03,53.73,0,41.7,0,26.87H0C0,12.03,12.03,0,26.87,0h0c14.84,0,26.87,12.03,26.87,26.86h0c0,14.84-12.03,26.87-26.87,26.87Z"/><path class="e" d="M12.55,35.86c2.6,1.67,5.69,2.64,9,2.64,10.9,0,17.07-9.21,16.69-17.47,1.15-.83,2.14-1.86,2.93-3.04-1.05,.47-2.19,.78-3.37,.92,1.21-.73,2.14-1.88,2.58-3.25-1.13,.67-2.39,1.16-3.73,1.43-1.07-1.14-2.6-1.85-4.29-1.85-3.79,0-6.58,3.54-5.72,7.21-4.88-.24-9.21-2.58-12.11-6.14-1.54,2.64-.8,6.09,1.82,7.84-.96-.03-1.87-.3-2.66-.74-.06,2.72,1.89,5.27,4.71,5.83-.83,.23-1.73,.28-2.65,.1,.75,2.33,2.92,4.03,5.49,4.08-2.47,1.94-5.58,2.8-8.7,2.43Z"/></g></g></g></svg>