<?xml version="1.0" encoding="UTF-8"?><svg xmlns="http://www.w3.org/2000/svg" viewBox="0 0 53.73 53.73"><defs><style>.d{fill:#76b224;opacity:.71;}.e{fill:#fff;fill-rule:evenodd;}</style></defs><g id="a"/><g id="b"><g id="c"><g><rect class="d" x="0" y="0" width="53.73" height="53.73" rx="26.86" ry="26.86"/><g><path class="e" d="M41.59,26.12c-.2-7.76-6.59-13.99-14.46-13.99s-14.12,6.09-14.45,13.73c0,.21-.01,.42-.01,.63,0,2.72,.76,5.25,2.07,7.42l-2.61,7.7,8.01-2.55c2.07,1.14,4.46,1.79,6.99,1.79,7.99,0,14.47-6.43,14.47-14.36,0-.12,0-.24,0-.37Zm-14.46,12.44c-2.47,0-4.77-.73-6.69-2l-4.67,1.49,1.52-4.48c-1.46-1.99-2.32-4.44-2.32-7.08,0-.39,.02-.79,.06-1.17,.6-6.11,5.8-10.9,12.1-10.9s11.64,4.91,12.12,11.13c.03,.31,.04,.62,.04,.94,0,6.66-5.46,12.07-12.16,12.07Z"/><path class="e" d="M33.76,29.38c-.36-.18-2.1-1.03-2.42-1.14-.33-.12-.56-.18-.8,.18-.24,.35-.92,1.14-1.12,1.37-.21,.24-.41,.26-.77,.09-.35-.18-1.5-.54-2.85-1.75-1.05-.93-1.77-2.08-1.97-2.43-.2-.35-.02-.54,.16-.72,.16-.16,.35-.41,.53-.62,.05-.06,.09-.12,.13-.17,.08-.13,.14-.25,.22-.42,.12-.24,.06-.44-.03-.62s-.8-1.91-1.1-2.61c-.29-.7-.59-.58-.8-.58s-.44-.03-.68-.03-.62,.09-.95,.44c-.32,.35-1.24,1.21-1.24,2.94,0,.41,.07,.81,.18,1.2,.36,1.24,1.13,2.26,1.27,2.44,.18,.23,2.45,3.9,6.06,5.32,3.61,1.4,3.61,.93,4.26,.87,.65-.05,2.1-.85,2.39-1.67,.3-.82,.3-1.52,.21-1.67-.09-.14-.33-.23-.68-.41Z"/></g></g></g></g></svg>